<svg width="1280" height="832" viewBox="0 0 1280 832" fill="none" xmlns="http://www.w3.org/2000/svg">
<g clip-path="url(#clip0_2070_372)">
<path opacity="0.2" fill-rule="evenodd" clip-rule="evenodd" d="M209.083 744.582C218.585 739.157 229.006 734.972 240.183 732.297C303.562 717.123 367.241 756.201 382.414 819.58C397.588 882.958 358.51 946.637 295.131 961.811C237.131 975.696 178.88 944.148 157.782 890.121C140.459 904.6 119.611 915.401 96.1646 921.015C15.0614 940.431 -66.426 890.425 -85.8428 809.322C-100.55 747.888 -75.4254 686.234 -27.1249 651.504C-46.0718 645.638 -61.5255 630.211 -66.4783 609.523C-73.9461 578.33 -54.7133 546.989 -23.5205 539.522C7.67222 532.054 39.0128 551.287 46.4806 582.479C50.0361 597.331 47.539 612.216 40.5802 624.541C116.599 614.07 189.617 662.817 207.858 739.007C208.302 740.866 208.711 742.724 209.083 744.582Z" fill="url(#paint0_linear_2070_372)"/>
<path opacity="0.2" fill-rule="evenodd" clip-rule="evenodd" d="M209.083 77.2262C218.585 82.6516 229.006 86.8361 240.183 89.5121C303.562 104.685 367.241 65.6074 382.414 2.22877C397.588 -61.1498 358.51 -124.829 295.131 -140.002C237.131 -153.888 178.88 -122.34 157.782 -68.312C140.459 -82.7917 119.611 -93.5928 96.1646 -99.2061C15.0614 -118.623 -66.426 -68.6162 -85.8428 12.4869C-100.55 73.9203 -75.4254 135.574 -27.1249 170.305C-46.0718 176.171 -61.5255 191.598 -66.4783 212.286C-73.9461 243.479 -54.7133 274.819 -23.5205 282.287C7.67222 289.755 39.0128 270.522 46.4806 239.329C50.0361 224.478 47.539 209.593 40.5802 197.267C116.599 207.738 189.617 158.991 207.858 82.8012C208.302 80.9428 208.711 79.0842 209.083 77.2262Z" fill="url(#paint1_linear_2070_372)"/>
<path opacity="0.2" fill-rule="evenodd" clip-rule="evenodd" d="M1070.8 744.582C1061.3 739.157 1050.88 734.972 1039.7 732.297C976.326 717.123 912.647 756.201 897.474 819.58C882.3 882.958 921.378 946.637 984.757 961.811C1042.76 975.696 1101.01 944.148 1122.11 890.121C1139.43 904.6 1160.28 915.401 1183.72 921.015C1264.83 940.431 1346.31 890.425 1365.73 809.322C1380.44 747.888 1355.31 686.234 1307.01 651.504C1325.96 645.638 1341.41 630.211 1346.37 609.523C1353.83 578.33 1334.6 546.989 1303.41 539.522C1272.22 532.054 1240.88 551.287 1233.41 582.479C1229.85 597.331 1232.35 612.216 1239.31 624.541C1163.29 614.07 1090.27 662.817 1072.03 739.007C1071.59 740.866 1071.18 742.724 1070.8 744.582Z" fill="url(#paint2_linear_2070_372)"/>
<path opacity="0.2" fill-rule="evenodd" clip-rule="evenodd" d="M1070.8 77.2262C1061.3 82.6516 1050.88 86.8361 1039.7 89.5121C976.326 104.685 912.647 65.6074 897.474 2.22877C882.3 -61.1498 921.378 -124.829 984.757 -140.002C1042.76 -153.888 1101.01 -122.34 1122.11 -68.312C1139.43 -82.7917 1160.28 -93.5928 1183.72 -99.2061C1264.83 -118.623 1346.31 -68.6162 1365.73 12.4869C1380.44 73.9203 1355.31 135.574 1307.01 170.305C1325.96 176.171 1341.41 191.598 1346.37 212.286C1353.83 243.479 1334.6 274.819 1303.41 282.287C1272.22 289.755 1240.88 270.522 1233.41 239.329C1229.85 224.478 1232.35 209.593 1239.31 197.267C1163.29 207.738 1090.27 158.991 1072.03 82.8012C1071.59 80.9428 1071.18 79.0842 1070.8 77.2262Z" fill="url(#paint3_linear_2070_372)"/>
<path fill-rule="evenodd" clip-rule="evenodd" d="M40 694C40 697.313 39.8466 700.59 39.5465 703.824C54.0428 696.27 70.5227 692 88 692C145.99 692 193 739.01 193 797C193 797.228 192.999 797.457 192.998 797.685C195.765 797.234 198.605 797 201.5 797C220.745 797 237.572 807.355 246.712 822.798C249.551 821.025 252.906 820 256.5 820C266.717 820 275 828.283 275 838.5C275 848.717 266.717 857 256.5 857C255.479 857 254.478 856.917 253.502 856.758C250.353 879.53 232.598 897.637 210 901.315V902H201.5H88C30.0101 902 -17 854.99 -17 797C-17 793.687 -16.8466 790.41 -16.5465 787.176C-31.0428 794.73 -47.5227 799 -65 799C-122.99 799 -170 751.99 -170 694C-170 636.01 -122.99 589 -65 589C-7.0101 589 40 636.01 40 694Z" fill="url(#paint4_linear_2070_372)"/>
<path fill-rule="evenodd" clip-rule="evenodd" d="M40 127.809C40 124.496 39.8466 121.219 39.5465 117.985C54.0428 125.539 70.5227 129.809 88 129.809C145.99 129.809 193 82.7985 193 24.8086C193 24.5801 192.999 24.3518 192.998 24.1237C195.765 24.5743 198.605 24.8086 201.5 24.8086C220.745 24.8086 237.572 14.4531 246.712 -0.989792C249.551 0.783691 252.906 1.80859 256.5 1.80859C266.717 1.80859 275 -6.47414 275 -16.6914C275 -26.9087 266.717 -35.1914 256.5 -35.1914C255.479 -35.1914 254.478 -35.1087 253.502 -34.9498C250.353 -57.7217 232.598 -75.8279 210 -79.5068V-80.1914H201.5H88C30.0101 -80.1914 -17 -33.1813 -17 24.8086C-17 28.1213 -16.8466 31.3981 -16.5465 34.6324C-31.0428 27.0787 -47.5227 22.8086 -65 22.8086C-122.99 22.8086 -170 69.8187 -170 127.809C-170 185.798 -122.99 232.809 -65 232.809C-7.0101 232.809 40 185.798 40 127.809Z" fill="url(#paint5_linear_2070_372)"/>
<path fill-rule="evenodd" clip-rule="evenodd" d="M1239.89 694C1239.89 697.313 1240.04 700.59 1240.34 703.824C1225.85 696.27 1209.37 692 1191.89 692C1133.9 692 1086.89 739.01 1086.89 797C1086.89 797.228 1086.89 797.457 1086.89 797.685C1084.12 797.234 1081.28 797 1078.39 797C1059.14 797 1042.32 807.355 1033.18 822.798C1030.34 821.025 1026.98 820 1023.39 820C1013.17 820 1004.89 828.283 1004.89 838.5C1004.89 848.717 1013.17 857 1023.39 857C1024.41 857 1025.41 856.917 1026.39 856.758C1029.54 879.53 1047.29 897.637 1069.89 901.315V902H1078.39H1191.89C1249.88 902 1296.89 854.99 1296.89 797C1296.89 793.687 1296.73 790.41 1296.43 787.176C1310.93 794.73 1327.41 799 1344.89 799C1402.88 799 1449.89 751.99 1449.89 694C1449.89 636.01 1402.88 589 1344.89 589C1286.9 589 1239.89 636.01 1239.89 694Z" fill="url(#paint6_linear_2070_372)"/>
<path fill-rule="evenodd" clip-rule="evenodd" d="M1239.89 127.809C1239.89 124.496 1240.04 121.219 1240.34 117.985C1225.85 125.539 1209.37 129.809 1191.89 129.809C1133.9 129.809 1086.89 82.7985 1086.89 24.8086C1086.89 24.5801 1086.89 24.3518 1086.89 24.1237C1084.12 24.5743 1081.28 24.8086 1078.39 24.8086C1059.14 24.8086 1042.32 14.4531 1033.18 -0.989792C1030.34 0.783691 1026.98 1.80859 1023.39 1.80859C1013.17 1.80859 1004.89 -6.47414 1004.89 -16.6914C1004.89 -26.9087 1013.17 -35.1914 1023.39 -35.1914C1024.41 -35.1914 1025.41 -35.1087 1026.39 -34.9498C1029.54 -57.7217 1047.29 -75.8279 1069.89 -79.5068V-80.1914H1078.39H1191.89C1249.88 -80.1914 1296.89 -33.1813 1296.89 24.8086C1296.89 28.1213 1296.73 31.3981 1296.43 34.6324C1310.93 27.0787 1327.41 22.8086 1344.89 22.8086C1402.88 22.8086 1449.89 69.8187 1449.89 127.809C1449.89 185.798 1402.88 232.809 1344.89 232.809C1286.9 232.809 1239.89 185.798 1239.89 127.809Z" fill="url(#paint7_linear_2070_372)"/>
</g>
<defs>
<linearGradient id="paint0_linear_2070_372" x1="292.981" y1="609.229" x2="-111.587" y2="706.086" gradientUnits="userSpaceOnUse">
<stop stop-color="white"/>
<stop offset="1" stop-color="white" stop-opacity="0"/>
</linearGradient>
<linearGradient id="paint1_linear_2070_372" x1="292.981" y1="212.58" x2="-111.587" y2="115.723" gradientUnits="userSpaceOnUse">
<stop stop-color="white"/>
<stop offset="1" stop-color="white" stop-opacity="0"/>
</linearGradient>
<linearGradient id="paint2_linear_2070_372" x1="986.907" y1="609.229" x2="1391.47" y2="706.086" gradientUnits="userSpaceOnUse">
<stop stop-color="white"/>
<stop offset="1" stop-color="white" stop-opacity="0"/>
</linearGradient>
<linearGradient id="paint3_linear_2070_372" x1="986.907" y1="212.58" x2="1391.47" y2="115.723" gradientUnits="userSpaceOnUse">
<stop stop-color="white"/>
<stop offset="1" stop-color="white" stop-opacity="0"/>
</linearGradient>
<linearGradient id="paint4_linear_2070_372" x1="222" y1="608" x2="222" y2="1024" gradientUnits="userSpaceOnUse">
<stop stop-color="white"/>
<stop offset="1" stop-color="white" stop-opacity="0"/>
</linearGradient>
<linearGradient id="paint5_linear_2070_372" x1="222" y1="213.809" x2="222" y2="-202.191" gradientUnits="userSpaceOnUse">
<stop stop-color="white"/>
<stop offset="1" stop-color="white" stop-opacity="0"/>
</linearGradient>
<linearGradient id="paint6_linear_2070_372" x1="1057.89" y1="608" x2="1057.89" y2="1024" gradientUnits="userSpaceOnUse">
<stop stop-color="white"/>
<stop offset="1" stop-color="white" stop-opacity="0"/>
</linearGradient>
<linearGradient id="paint7_linear_2070_372" x1="1057.89" y1="213.809" x2="1057.89" y2="-202.191" gradientUnits="userSpaceOnUse">
<stop stop-color="white"/>
<stop offset="1" stop-color="white" stop-opacity="0"/>
</linearGradient>
<clipPath id="clip0_2070_372">
<rect width="1280" height="832" fill="white"/>
</clipPath>
</defs>
</svg>
