<svg width="1140" height="167" viewBox="0 0 1140 167" fill="none" xmlns="http://www.w3.org/2000/svg">
<path d="M1115.71 81.088L1116.09 81.28C1125.89 88.384 1136.25 120.448 1119.55 144.832C1108.99 160 1086.91 163.84 1069.63 163.84C1040.25 163.84 1012.22 152.896 1001.85 122.944C996.477 106.816 997.629 88.192 1003.58 70.528C1015.29 35.776 1046.01 6.59198 1084.22 6.59198C1098.81 6.59198 1114.17 10.624 1130.88 20.416C1136.25 23.68 1137.6 34.048 1138.17 39.616C1138.75 47.296 1137.41 55.552 1134.14 60.928C1130.49 67.648 1123.77 69.376 1116.29 69.376C1110.91 69.376 1104.96 68.608 1099.39 67.264C1096.51 66.688 1093.82 66.496 1091.33 65.92C1089.98 65.92 1089.21 65.728 1087.87 65.728C1074.81 65.728 1064.45 75.52 1060.03 87.232C1058.49 91.648 1057.73 96.064 1058.3 100.096C1059.26 106.24 1062.72 110.656 1068.86 113.152C1064.45 109.12 1062.33 102.976 1062.14 97.024C1061.95 92.8 1062.91 88.576 1064.64 84.16C1067.52 77.44 1073.66 71.296 1081.34 71.296C1091.13 71.296 1107.84 75.904 1115.71 81.088ZM1122.62 124.48C1123.58 118.528 1123.58 112.768 1122.81 107.392C1121.47 96.64 1117.05 88.192 1113.21 85.312C1106.49 80.704 1089.98 76.096 1081.53 76.096C1075.58 76.096 1071.36 81.28 1069.05 86.08C1067.71 89.728 1066.94 93.184 1066.94 96.832C1067.52 105.088 1071.17 111.232 1079.61 112.768C1080.38 112.96 1080.96 112.96 1081.53 113.152C1089.02 113.152 1093.25 111.616 1099.58 107.584C1094.4 115.072 1086.72 119.488 1075.97 119.488C1064.64 119.488 1055.04 112 1053.5 100.672C1052.73 95.872 1053.5 90.688 1055.23 85.504C1060.22 71.872 1072.89 60.928 1087.87 60.928C1091.9 60.928 1096.13 61.696 1100.16 62.464C1105.53 63.424 1111.1 64.384 1116.29 64.384C1121.66 64.384 1127.04 63.232 1129.92 58.432C1132.8 53.824 1133.76 46.72 1133.18 40C1133.18 36.544 1131.84 26.56 1128.38 24.64C1112.83 15.616 1098.05 11.584 1084.22 11.584C1047.93 11.584 1019.52 39.04 1008.19 72.064C1002.62 88.96 1001.47 106.24 1006.65 121.408C1015.87 148.864 1042.17 159.04 1069.63 159.04C1084.99 159.04 1106.11 155.968 1115.33 142.144C1119.17 136.576 1121.66 130.624 1122.62 124.48ZM1041.79 40.96C1038.72 43.072 1035.45 46.336 1031.81 50.56C1025.09 58.816 1020.86 68.224 1018.37 78.4C1018.17 79.552 1017.41 80.128 1016.06 80.128C1015.1 80.128 1014.53 79.936 1014.14 79.36C1013.57 78.784 1013.37 78.016 1013.57 77.248C1016.64 64.384 1022.78 52.48 1031.81 43.264C1034.3 40.768 1044.09 32.512 1047.74 32.512C1048.89 32.512 1049.66 33.088 1050.24 34.24C1050.81 35.776 1050.24 36.736 1048.51 37.312C1047.17 37.696 1044.86 38.848 1041.79 40.96ZM1014.14 81.856C1015.87 81.856 1016.64 82.624 1016.64 84.352C1016.64 86.08 1015.87 87.04 1014.14 87.04C1012.41 87.04 1011.45 86.08 1011.45 84.352C1011.45 82.624 1012.41 81.856 1014.14 81.856Z" fill="#62A0E7"/>
<path fill-rule="evenodd" clip-rule="evenodd" d="M1116.61 80.4223L1116.68 80.4706C1119.32 82.3852 1121.89 85.8889 1124.02 90.3481C1126.15 94.8296 1127.87 100.363 1128.75 106.433C1130.5 118.568 1128.9 132.949 1120.37 145.397L1120.37 145.403C1114.92 153.229 1106.54 158.081 1097.41 160.977C1088.28 163.874 1078.33 164.84 1069.63 164.84C1040.04 164.84 1011.48 153.799 1000.91 123.271L1000.9 123.26C995.443 106.877 996.63 88.0239 1002.63 70.2087C1014.44 35.1701 1045.47 5.59198 1084.22 5.59198C1099.01 5.59198 1114.54 9.68232 1131.38 19.5533L1131.39 19.5572L1131.4 19.5612C1134.42 21.3999 1136.19 25.1326 1137.28 28.8715C1138.39 32.661 1138.88 36.7226 1139.17 39.5131L1139.17 39.5271L1139.17 39.5412C1139.75 47.3352 1138.41 55.811 1135.01 61.4261C1131.09 68.6229 1123.88 70.376 1116.29 70.376C1110.83 70.376 1104.8 69.5981 1099.17 68.2407C1097.87 67.981 1096.61 67.801 1095.36 67.6224C1095.26 67.6089 1095.17 67.5954 1095.07 67.5819C1093.77 67.3958 1092.47 67.2044 1091.21 66.9195C1090.55 66.9145 1090.01 66.866 1089.52 66.8208L1089.51 66.8199C1088.98 66.7719 1088.49 66.728 1087.87 66.728C1075.36 66.728 1065.29 76.1254 1060.97 87.5727C1059.47 91.8981 1058.75 96.1371 1059.29 99.9482C1059.92 104.003 1061.7 107.242 1064.7 109.633C1062.41 105.874 1061.28 101.396 1061.14 97.0628C1060.94 92.6566 1061.95 88.2905 1063.71 83.7956L1063.71 83.7807L1063.72 83.7661C1066.68 76.8546 1073.1 70.296 1081.34 70.296C1086.36 70.296 1093.08 71.472 1099.52 73.2855C1105.92 75.09 1112.15 77.5588 1116.21 80.2199L1116.61 80.4223ZM1115.71 81.088C1107.84 75.904 1091.13 71.296 1081.34 71.296C1073.66 71.296 1067.52 77.44 1064.64 84.16C1062.91 88.576 1061.95 92.8 1062.14 97.024C1062.3 102.062 1063.84 107.238 1066.99 111.153C1067.56 111.864 1068.18 112.533 1068.86 113.152C1067.96 112.786 1067.12 112.379 1066.33 111.931C1061.76 109.324 1059.12 105.339 1058.3 100.096C1057.73 96.064 1058.49 91.648 1060.03 87.232C1064.45 75.52 1074.81 65.728 1087.87 65.728C1088.54 65.728 1089.07 65.776 1089.6 65.824C1090.13 65.872 1090.65 65.92 1091.33 65.92C1092.66 66.2285 1094.05 66.4269 1095.5 66.6331C1096.76 66.8118 1098.05 66.9965 1099.39 67.264C1104.96 68.608 1110.91 69.376 1116.29 69.376C1123.77 69.376 1130.49 67.648 1134.14 60.928C1137.41 55.552 1138.75 47.296 1138.17 39.616C1137.6 34.048 1136.25 23.68 1130.88 20.416C1114.17 10.624 1098.81 6.59198 1084.22 6.59198C1046.01 6.59198 1015.29 35.776 1003.58 70.528C997.629 88.192 996.477 106.816 1001.85 122.944C1012.22 152.896 1040.25 163.84 1069.63 163.84C1086.91 163.84 1108.99 160 1119.55 144.832C1136.25 120.448 1125.89 88.384 1116.09 81.28L1115.71 81.088ZM1121.63 124.326L1121.63 124.321C1122.58 118.469 1122.58 112.81 1121.82 107.533L1121.82 107.525L1121.82 107.516C1121.16 102.238 1119.75 97.5375 1118.04 93.8172C1116.33 90.0829 1114.36 87.4264 1112.63 86.1245C1109.4 83.9174 1103.73 81.6538 1097.75 79.9372C1091.76 78.2199 1085.62 77.096 1081.53 77.096C1076.22 77.096 1072.25 81.7486 1069.98 86.4702C1068.67 90.0108 1067.95 93.3241 1067.94 96.7972C1068.22 100.792 1069.24 104.175 1071.13 106.726C1073 109.261 1075.79 111.057 1079.79 111.784L1079.82 111.79L1079.86 111.798C1080.16 111.874 1080.43 111.915 1080.72 111.96L1080.8 111.972C1081.06 112.012 1081.37 112.061 1081.68 112.152C1085.28 112.142 1088.06 111.764 1090.69 110.927C1093.35 110.077 1095.91 108.735 1099.04 106.74L1100.4 108.153C1095.03 115.913 1087.04 120.488 1075.97 120.488C1064.2 120.488 1054.13 112.689 1052.51 100.818C1051.71 95.8124 1052.52 90.4632 1054.28 85.1878L1054.28 85.1739L1054.29 85.1601C1059.39 71.2212 1072.39 59.928 1087.87 59.928C1092.01 59.928 1096.32 60.7149 1100.34 61.4805C1105.73 62.4426 1111.21 63.384 1116.29 63.384C1121.58 63.384 1126.47 62.2389 1129.06 57.9175L1129.06 57.9097L1129.07 57.902C1131.79 53.5547 1132.75 46.7023 1132.18 40.0854L1132.18 40.0428V40C1132.18 38.3572 1131.86 35.0763 1131.11 31.9796C1130.73 30.4334 1130.26 28.9727 1129.69 27.8009C1129.11 26.6005 1128.49 25.8432 1127.9 25.5141L1127.89 25.5096L1127.88 25.5049C1112.46 16.5555 1097.84 12.584 1084.22 12.584C1048.49 12.584 1020.37 39.6353 1009.14 72.3827C1003.62 89.1354 1002.51 106.181 1007.6 121.085L1007.6 121.09C1016.62 147.953 1042.37 158.04 1069.63 158.04C1077.25 158.04 1086.27 157.276 1094.49 154.818C1102.73 152.357 1110.06 148.232 1114.49 141.589L1114.5 141.583L1114.5 141.576C1118.27 136.116 1120.7 130.303 1121.63 124.326ZM1008.19 72.064C1019.52 39.04 1047.93 11.584 1084.22 11.584C1098.05 11.584 1112.83 15.616 1128.38 24.64C1131.84 26.56 1133.18 36.544 1133.18 40C1133.76 46.72 1132.8 53.824 1129.92 58.432C1127.04 63.232 1121.66 64.384 1116.29 64.384C1111.1 64.384 1105.53 63.424 1100.16 62.464C1096.13 61.696 1091.9 60.928 1087.87 60.928C1072.89 60.928 1060.22 71.872 1055.23 85.504C1053.5 90.688 1052.73 95.872 1053.5 100.672C1055.04 112 1064.64 119.488 1075.97 119.488C1085.62 119.488 1092.8 115.925 1097.92 109.773C1098.5 109.076 1099.05 108.346 1099.58 107.584C1098.78 108.095 1098.01 108.566 1097.26 108.998C1092.12 111.981 1088.07 113.152 1081.53 113.152C1081.22 113.048 1080.91 113 1080.57 112.948C1080.28 112.904 1079.97 112.856 1079.61 112.768C1071.17 111.232 1067.52 105.088 1066.94 96.832C1066.94 93.184 1067.71 89.728 1069.05 86.08C1071.36 81.28 1075.58 76.096 1081.53 76.096C1089.98 76.096 1106.49 80.704 1113.21 85.312C1117.05 88.192 1121.47 96.64 1122.81 107.392C1123.58 112.768 1123.58 118.528 1122.62 124.48C1121.66 130.624 1119.17 136.576 1115.33 142.144C1106.11 155.968 1084.99 159.04 1069.63 159.04C1042.17 159.04 1015.87 148.864 1006.65 121.408C1001.47 106.24 1002.62 88.96 1008.19 72.064ZM1031.1 42.5569C1032.39 41.2672 1035.5 38.5472 1038.75 36.1477C1040.37 34.9467 1042.06 33.8085 1043.58 32.9659C1044.34 32.5446 1045.08 32.1877 1045.76 31.934C1046.44 31.6846 1047.12 31.512 1047.74 31.512C1048.5 31.512 1049.18 31.7048 1049.78 32.127C1050.37 32.5395 1050.8 33.1226 1051.13 33.7928L1051.15 33.8397L1051.17 33.8889C1051.52 34.8154 1051.59 35.7762 1051.11 36.6321C1050.64 37.4494 1049.78 37.9411 1048.83 38.2607L1048.8 38.2675L1048.78 38.2735C1047.6 38.6124 1045.4 39.6907 1042.36 41.784C1039.39 43.8199 1036.2 47.0013 1032.57 51.2025C1025.97 59.3125 1021.81 68.5636 1019.34 78.6043C1019.21 79.3596 1018.87 80.0298 1018.25 80.496C1017.63 80.9567 1016.86 81.128 1016.06 81.128C1015.96 81.128 1015.87 81.1263 1015.77 81.1224C1016.13 81.2623 1016.46 81.4651 1016.74 81.7489C1017.42 82.4247 1017.64 83.3634 1017.64 84.352C1017.64 85.3429 1017.42 86.2987 1016.78 87.0108C1016.13 87.7442 1015.19 88.04 1014.14 88.04C1013.1 88.04 1012.14 87.7468 1011.44 87.0511C1010.75 86.3553 1010.45 85.3969 1010.45 84.352C1010.45 83.3049 1010.75 82.367 1011.48 81.7107C1012.19 81.0736 1013.15 80.856 1014.14 80.856C1014.25 80.856 1014.35 80.8584 1014.45 80.8635C1014.01 80.6782 1013.65 80.3896 1013.37 79.9977C1012.59 79.1717 1012.33 78.0736 1012.59 77.011C1015.7 63.995 1021.93 51.9243 1031.09 42.5644L1031.1 42.5569ZM1013.57 77.248C1013.37 78.016 1013.57 78.784 1014.14 79.36C1014.53 79.936 1015.1 80.128 1016.06 80.128C1017.41 80.128 1018.17 79.552 1018.37 78.4C1020.86 68.224 1025.09 58.816 1031.81 50.56C1035.45 46.336 1038.72 43.072 1041.79 40.96C1044.86 38.848 1047.17 37.696 1048.51 37.312C1050.24 36.736 1050.81 35.776 1050.24 34.24C1049.66 33.088 1048.89 32.512 1047.74 32.512C1044.09 32.512 1034.3 40.768 1031.81 43.264C1022.78 52.48 1016.64 64.384 1013.57 77.248ZM1016.64 84.352C1016.64 82.624 1015.87 81.856 1014.14 81.856C1012.41 81.856 1011.45 82.624 1011.45 84.352C1011.45 86.08 1012.41 87.04 1014.14 87.04C1015.87 87.04 1016.64 86.08 1016.64 84.352Z" fill="#62A0E7"/>
<path d="M969.729 23.488C981.825 33.664 990.273 47.872 993.345 64.768C997.185 86.464 992.193 108.16 980.865 125.824C965.505 149.824 941.505 164.8 912.897 164.8C882.561 164.8 850.497 148.288 842.817 116.8C840.705 108.16 840.321 98.368 842.433 87.04C845.313 69.952 851.265 56.704 858.369 45.952C873.153 23.872 897.729 7.552 925.185 7.552C942.081 7.552 957.633 13.504 969.729 23.488ZM925.185 12.352C883.521 12.352 853.953 49.6 847.233 88C845.121 98.56 845.505 107.392 847.617 115.648C854.913 145.024 884.289 159.808 913.089 159.808C940.161 159.808 962.625 145.6 976.641 123.136C987.393 106.24 992.193 86.08 988.545 65.536C982.977 34.816 957.057 12.352 925.185 12.352ZM926.337 102.592C923.457 104.32 920.193 105.088 916.737 105.088C909.249 105.088 901.761 100.864 899.649 93.184C899.073 91.072 899.073 88.768 899.649 85.888C901.185 76.288 908.673 67.072 919.425 67.072C927.681 67.072 934.785 72.832 936.129 81.088C937.089 86.272 936.129 91.264 933.249 95.68C931.521 98.56 929.217 100.864 926.337 102.592ZM929.025 93.184C931.137 89.92 932.097 85.888 931.329 82.048C930.369 76.096 925.377 72.064 919.425 72.064C911.553 72.064 905.793 79.36 904.449 86.848C904.065 88.768 904.065 90.496 904.449 92.032C905.793 97.6 911.553 100.096 916.737 100.096C921.921 100.096 926.145 97.6 929.025 93.184ZM929.409 19.456C929.601 17.728 930.561 17.152 932.097 17.344C955.137 20.224 969.921 32.704 978.945 54.016L979.137 54.592C979.713 56.128 979.329 57.28 977.793 57.856C977.601 58.048 977.217 58.048 976.833 58.048C975.681 58.048 974.913 57.472 974.529 56.512L974.337 55.936C966.081 36.736 952.449 24.64 931.521 22.144C929.793 21.952 929.217 20.992 929.409 19.456ZM923.649 21.76C921.921 21.76 921.153 20.992 921.153 19.264C921.153 17.536 921.921 16.576 923.649 16.576C925.377 16.576 926.337 17.536 926.337 19.264C926.337 20.992 925.377 21.76 923.649 21.76Z" fill="#62A0E7"/>
<path fill-rule="evenodd" clip-rule="evenodd" d="M970.366 22.7168L970.373 22.7227C982.649 33.0502 991.216 47.4663 994.329 64.5891L994.33 64.5937C998.216 86.5516 993.162 108.5 981.707 126.363C966.189 150.611 941.89 165.8 912.897 165.8C882.285 165.8 849.673 149.13 841.846 117.037C839.698 108.251 839.314 98.3176 841.448 86.8653C844.354 69.6339 850.361 56.2586 857.535 45.4007L857.538 45.3956C872.465 23.1029 897.325 6.552 925.185 6.552C942.319 6.552 958.095 12.5888 970.366 22.7168ZM842.433 87.04C840.321 98.368 840.705 108.16 842.817 116.8C850.497 148.288 882.561 164.8 912.897 164.8C941.505 164.8 965.505 149.824 980.865 125.824C992.193 108.16 997.185 86.464 993.345 64.768C990.273 47.872 981.825 33.664 969.729 23.488C957.633 13.504 942.081 7.552 925.185 7.552C897.729 7.552 873.153 23.872 858.369 45.952C851.265 56.704 845.313 69.952 842.433 87.04ZM848.216 88.1843L848.214 88.1961C846.13 98.6166 846.513 107.297 848.586 115.4L848.588 115.407C855.732 144.173 884.554 158.808 913.089 158.808C939.775 158.808 961.936 144.815 975.793 122.607L975.797 122.599C986.428 105.895 991.161 85.9861 987.56 65.7108C982.075 35.456 956.56 13.352 925.185 13.352C884.187 13.352 854.89 50.0483 848.218 88.1724L848.216 88.1843ZM988.545 65.536C992.193 86.08 987.393 106.24 976.641 123.136C962.625 145.6 940.161 159.808 913.089 159.808C884.289 159.808 854.913 145.024 847.617 115.648C845.505 107.392 845.121 98.56 847.233 88C853.953 49.6 883.521 12.352 925.185 12.352C957.057 12.352 982.977 34.816 988.545 65.536ZM898.685 93.4492L898.684 93.4471C898.057 91.1481 898.072 88.685 898.665 85.7109C900.258 75.8022 908.035 66.072 919.425 66.072C928.147 66.072 935.684 72.1626 937.114 80.9165C938.116 86.3377 937.11 91.5818 934.097 96.2106C932.286 99.2239 929.867 101.64 926.852 103.45C923.791 105.286 920.343 106.088 916.737 106.088C908.922 106.088 900.946 101.672 898.685 93.4492ZM933.249 95.68C936.129 91.264 937.089 86.272 936.129 81.088C934.785 72.832 927.681 67.072 919.425 67.072C908.673 67.072 901.185 76.288 899.649 85.888C899.073 88.768 899.073 91.072 899.649 93.184C901.761 100.864 909.249 105.088 916.737 105.088C920.193 105.088 923.457 104.32 926.337 102.592C929.217 100.864 931.521 98.56 933.249 95.68ZM930.345 82.2257L930.342 82.2072C929.464 76.762 924.909 73.064 919.425 73.064C912.231 73.064 906.731 79.7933 905.433 87.0247L905.432 87.0344L905.43 87.0441C905.068 88.8525 905.079 90.427 905.419 91.7895L905.421 91.7974C906.607 96.7099 911.762 99.096 916.737 99.096C921.55 99.096 925.473 96.7992 928.186 92.6398C930.175 89.5654 931.059 85.7961 930.348 82.2441L930.345 82.2257ZM929.025 93.184C926.145 97.6 921.921 100.096 916.737 100.096C911.553 100.096 905.793 97.6 904.449 92.032C904.065 90.496 904.065 88.768 904.449 86.848C905.793 79.36 911.553 72.064 919.425 72.064C925.377 72.064 930.369 76.096 931.329 82.048C932.097 85.888 931.137 89.92 929.025 93.184ZM979.881 53.6624L980.08 54.259C980.411 55.1503 980.525 56.0879 980.188 56.9484C979.859 57.7912 979.172 58.3715 978.295 58.7329C978.016 58.9238 977.718 58.9867 977.527 59.014C977.287 59.0482 977.032 59.0481 976.859 59.048L976.833 59.048C976.085 59.048 975.401 58.8588 974.827 58.464C974.254 58.0704 973.853 57.5152 973.601 56.8834L973.59 56.8561L973.402 56.2925C965.26 37.3841 951.904 25.5833 931.406 23.1374C930.386 23.0233 929.501 22.658 928.94 21.8972C928.391 21.1515 928.306 20.2295 928.416 19.3385C928.53 18.3196 928.896 17.435 929.656 16.875C930.403 16.3242 931.328 16.2401 932.221 16.3517C943.898 17.8114 953.534 21.7123 961.401 27.9862C969.263 34.2566 975.305 42.8539 979.866 53.6261L979.881 53.6624ZM929.409 19.456C929.601 17.728 930.561 17.152 932.097 17.344C955.137 20.224 969.921 32.704 978.945 54.016L979.137 54.592C979.713 56.128 979.329 57.28 977.793 57.856C977.601 58.048 977.217 58.048 976.833 58.048C975.681 58.048 974.913 57.472 974.529 56.512L974.337 55.936C966.081 36.736 952.449 24.64 931.521 22.144C929.793 21.952 929.217 20.992 929.409 19.456ZM921.046 21.8671C920.37 21.1913 920.153 20.2526 920.153 19.264C920.153 18.2731 920.371 17.3173 921.008 16.6052C921.664 15.8718 922.602 15.576 923.649 15.576C924.694 15.576 925.652 15.8691 926.348 16.5649C927.044 17.2606 927.337 18.2191 927.337 19.264C927.337 20.311 927.041 21.249 926.308 21.9052C925.596 22.5424 924.64 22.76 923.649 22.76C922.661 22.76 921.722 22.5429 921.046 21.8671ZM921.153 19.264C921.153 20.992 921.921 21.76 923.649 21.76C925.377 21.76 926.337 20.992 926.337 19.264C926.337 17.536 925.377 16.576 923.649 16.576C921.921 16.576 921.153 17.536 921.153 19.264Z" fill="#62A0E7"/>
<path d="M723.671 30.592C720.599 59.2 725.207 137.152 730.199 148.096C734.807 158.656 767.639 159.232 778.007 159.232C778.967 159.424 780.311 159.424 781.655 159.424H786.071C802.775 159.424 830.423 156.736 831.959 132.544C833.495 113.92 828.311 105.856 818.519 103.36C815.831 102.592 812.759 102.208 809.495 102.208C802.007 102.208 793.751 103.744 784.535 105.472L783.191 100.864C792.983 98.752 801.623 97.408 809.495 97.408C813.143 97.408 816.791 97.6 819.863 98.56C831.767 101.632 838.487 111.424 836.951 132.928C834.839 161.152 804.503 164.416 786.263 164.416C770.519 164.416 732.695 164.224 725.591 150.208C723.095 144.064 720.599 121.408 719.063 96.064C717.527 71.488 717.335 44.416 718.871 30.208C720.983 12.352 731.927 1.79199 749.591 1.79199C750.935 1.79199 751.511 1.79199 751.703 1.98399H754.967C766.679 2.55998 774.935 3.32798 782.039 16.768C788.951 29.056 781.079 86.656 779.543 101.44C780.503 101.248 781.655 101.056 782.615 100.864C779.543 101.824 776.855 102.592 774.359 103.552V104.32L773.783 107.776C769.367 109.12 765.143 111.04 759.575 115.648C763.415 108.928 768.215 105.856 774.359 103.552C775.703 95.68 783.767 30.592 777.623 19.072C772.055 8.31999 764.567 7.55199 754.967 6.97598L751.319 6.78399C735.383 6.78399 725.783 14.464 723.671 30.592ZM727.319 41.344C727.703 28.288 730.199 17.92 738.455 14.08C740.759 12.928 743.639 12.352 747.095 12.352C748.823 12.352 749.591 13.12 749.591 14.848C749.591 16.576 748.823 17.344 747.095 17.344C743.639 17.344 740.759 18.304 738.455 20.416C732.119 26.368 732.119 39.424 732.119 55.36V58.24C732.119 59.968 731.351 60.736 729.623 60.736C728.087 60.736 727.319 59.968 727.319 58.24L727.127 55.36C727.127 50.56 727.127 45.76 727.319 41.344ZM752.471 14.272C752.471 12.544 753.239 11.584 754.967 11.584C756.695 11.584 757.655 12.544 757.655 14.272C757.655 15.616 756.503 16.96 754.967 16.96C753.623 16.96 752.471 15.616 752.471 14.272Z" fill="#62A0E7"/>
<path fill-rule="evenodd" clip-rule="evenodd" d="M774.539 102.415C776.294 90.8181 783.533 30.1549 777.623 19.072C772.055 8.31999 764.567 7.55199 754.967 6.97598L751.319 6.78399C735.383 6.78399 725.783 14.464 723.671 30.592C720.599 59.2 725.207 137.152 730.199 148.096C734.807 158.656 767.639 159.232 778.007 159.232C778.967 159.424 780.311 159.424 781.655 159.424H786.071C802.775 159.424 830.423 156.736 831.959 132.544C833.495 113.92 828.311 105.856 818.519 103.36C815.831 102.592 812.759 102.208 809.495 102.208C802.007 102.208 793.751 103.744 784.535 105.472L783.191 100.864C783.519 100.793 783.845 100.723 784.171 100.654C793.561 98.6634 801.886 97.408 809.495 97.408C813.143 97.408 816.791 97.6 819.863 98.56C831.767 101.632 838.487 111.424 836.951 132.928C834.839 161.152 804.503 164.416 786.263 164.416C770.519 164.416 732.695 164.224 725.591 150.208C723.095 144.064 720.599 121.408 719.063 96.064C717.527 71.488 717.335 44.416 718.871 30.208C720.983 12.352 731.927 1.79199 749.591 1.79199C750.935 1.79199 751.511 1.79199 751.703 1.98399H754.967C766.679 2.55998 774.935 3.32798 782.039 16.768C788.076 27.5017 782.833 72.8095 780.387 93.9533C780.094 96.4806 779.842 98.6627 779.653 100.399C779.641 100.516 779.628 100.63 779.616 100.742C779.59 100.984 779.566 101.217 779.543 101.44C779.867 101.375 780.214 101.31 780.568 101.245C780.737 101.214 780.908 101.183 781.079 101.152C781.449 101.085 781.82 101.017 782.174 100.95C782.324 100.921 782.472 100.893 782.615 100.864C782.471 100.909 782.329 100.953 782.188 100.997C781.637 101.168 781.098 101.333 780.571 101.495C780.561 101.498 780.551 101.501 780.541 101.504C780.509 101.514 780.477 101.524 780.445 101.534C780.165 101.62 779.887 101.705 779.613 101.79C779.224 101.91 778.841 102.029 778.464 102.147C777.416 102.476 776.411 102.804 775.437 103.152C775.073 103.282 774.714 103.415 774.359 103.552C774.41 103.253 774.47 102.872 774.539 102.415ZM774.359 104.32V103.552C774.021 103.678 773.688 103.807 773.359 103.939C768.509 105.877 764.525 108.421 761.202 113.092C760.641 113.881 760.099 114.73 759.575 115.648C760.386 114.977 761.168 114.362 761.927 113.799C766.377 110.493 770.01 108.924 773.783 107.776L774.359 104.32ZM773.465 102.823C774.232 97.9684 776.446 80.5019 777.801 62.6045C778.508 53.2685 778.98 43.8392 778.894 36.0361C778.85 32.1335 778.668 28.6569 778.309 25.8116C777.947 22.9367 777.418 20.813 776.74 19.5426L776.734 19.5319C774.041 14.3305 770.938 11.6316 767.414 10.1277C763.831 8.59857 759.732 8.26378 754.91 7.97441C754.909 7.97433 754.908 7.97426 754.907 7.97419L751.292 7.78399C743.491 7.78819 737.373 9.67005 732.956 13.4037C728.542 17.1348 725.698 22.8256 724.664 30.7103C723.139 44.9287 723.518 71.4896 724.909 95.9111C725.604 108.114 726.551 119.757 727.634 129.026C728.175 133.661 728.75 137.692 729.342 140.897C729.94 144.131 730.541 146.436 731.108 147.681L731.112 147.688L731.115 147.696C732.102 149.958 734.694 151.846 738.523 153.361C742.307 154.859 747.08 155.907 752.086 156.634C762.092 158.088 772.832 158.232 778.007 158.232H778.106L778.203 158.251C779.043 158.419 780.271 158.424 781.655 158.424H786.071C794.398 158.424 805.324 157.749 814.329 154.128C818.821 152.322 822.789 149.801 825.724 146.307C828.649 142.825 830.589 138.326 830.961 132.481L830.961 132.471L830.962 132.462C831.723 123.228 830.802 116.77 828.592 112.351C826.412 107.991 822.928 105.516 818.272 104.329L818.258 104.325L818.244 104.322C815.661 103.584 812.684 103.208 809.495 103.208C802.118 103.208 793.959 104.722 784.719 106.455L783.828 106.622L782.468 101.957C781.911 102.13 781.37 102.296 780.842 102.458C778.857 103.068 777.06 103.619 775.359 104.244V104.403L774.667 108.552L774.074 108.733C769.778 110.04 765.673 111.899 760.212 116.418L758.706 115.152C762.577 108.378 767.421 105.165 773.465 102.823ZM782.448 100.001L782.98 99.8865C792.796 97.7693 801.517 96.408 809.495 96.408C813.146 96.408 816.915 96.5961 820.137 97.598C826.307 99.1958 831.204 102.565 834.327 108.357C837.43 114.113 838.723 122.153 837.948 132.999L837.948 133.003C837.406 140.246 835.046 145.937 831.485 150.38C827.931 154.814 823.222 157.956 818.049 160.175C807.727 164.602 795.414 165.416 786.263 165.416C778.395 165.416 764.935 165.369 752.542 163.557C746.347 162.652 740.37 161.299 735.47 159.265C730.592 157.239 726.633 154.477 724.699 150.66L724.68 150.623L724.664 150.584C723.998 148.944 723.359 146.286 722.749 142.897C722.135 139.486 721.539 135.264 720.973 130.453C719.843 120.829 718.833 108.81 718.064 96.1254C716.528 71.5344 716.331 44.3948 717.876 30.1005L717.877 30.0905C718.954 20.9872 722.296 13.6435 727.715 8.57372C733.141 3.49826 740.553 0.791994 749.591 0.791994L749.635 0.791993C750.269 0.791978 750.778 0.791967 751.15 0.818535C751.341 0.832227 751.545 0.855732 751.736 0.906286C751.805 0.924392 751.884 0.949009 751.967 0.983991H754.991L755.016 0.985198C760.843 1.2718 766.022 1.60651 770.633 3.63674C775.301 5.69167 779.289 9.42954 782.917 16.2894C783.864 17.9794 784.518 20.3578 784.966 23.1704C785.419 26.0083 785.674 29.3707 785.78 33.0745C785.992 40.4828 785.605 49.3353 784.956 58.2407C783.986 71.5502 782.424 85.052 781.377 94.0922C781.103 96.4668 780.864 98.5335 780.68 100.208C780.752 100.195 780.824 100.182 780.896 100.169L780.9 100.168C781.43 100.072 781.949 99.9774 782.418 99.8834L782.448 100.001ZM726.127 55.3933V55.3481C726.127 50.5595 726.127 45.7437 726.319 41.3076C726.513 34.7438 727.237 28.7659 728.994 23.9154C730.757 19.0483 733.589 15.245 738.02 13.1792C740.5 11.9426 743.54 11.352 747.095 11.352C748.083 11.352 749.022 11.569 749.698 12.2449C750.373 12.9207 750.591 13.8594 750.591 14.848C750.591 15.8366 750.373 16.7753 749.698 17.4511C749.022 18.1269 748.083 18.344 747.095 18.344C743.84 18.344 741.219 19.2406 739.135 21.149C736.231 23.8802 734.686 28.3363 733.902 34.2749C733.12 40.1958 733.119 47.3707 733.119 55.36V58.24C733.119 59.2285 732.901 60.1672 732.226 60.8431C731.55 61.5189 730.611 61.736 729.623 61.736C728.7 61.736 727.809 61.504 727.166 60.8214C726.543 60.1592 726.324 59.251 726.319 58.2746L726.127 55.3933ZM727.319 58.24C727.319 59.968 728.087 60.736 729.623 60.736C731.351 60.736 732.119 59.968 732.119 58.24V55.36C732.119 39.424 732.119 26.368 738.455 20.416C740.759 18.304 743.639 17.344 747.095 17.344C748.823 17.344 749.591 16.576 749.591 14.848C749.591 13.12 748.823 12.352 747.095 12.352C743.639 12.352 740.759 12.928 738.455 14.08C730.199 17.92 727.703 28.288 727.319 41.344C727.127 45.76 727.127 50.56 727.127 55.36L727.319 58.24ZM752.325 11.6132C752.982 10.8798 753.919 10.584 754.967 10.584C756.011 10.584 756.97 10.8771 757.666 11.5729C758.361 12.2686 758.655 13.2271 758.655 14.272C758.655 16.1217 757.1 17.96 754.967 17.96C753.954 17.96 753.076 17.457 752.473 16.7909C751.871 16.1259 751.471 15.2211 751.471 14.272C751.471 13.2811 751.688 12.3253 752.325 11.6132ZM754.967 11.584C753.239 11.584 752.471 12.544 752.471 14.272C752.471 15.616 753.623 16.96 754.967 16.96C756.503 16.96 757.655 15.616 757.655 14.272C757.655 12.544 756.695 11.584 754.967 11.584Z" fill="#62A0E7"/>
<path d="M632.343 43.072C643.863 30.016 667.095 9.66398 685.911 9.66398C696.855 9.47199 703.767 16.192 708.183 25.984C711.831 34.24 713.943 59.584 713.367 85.504C712.791 107.008 710.103 128.32 705.495 140.8C699.543 155.968 686.103 163.84 669.975 163.84C660.183 163.84 650.199 161.152 642.711 155.2C630.039 145.6 639.831 114.112 645.975 97.6C641.559 100.48 634.647 103.936 629.463 103.936C622.743 103.936 617.367 99.712 612.951 95.104C616.599 108.544 620.439 128.512 617.943 138.88C615.639 147.904 611.991 153.28 606.615 156.928C598.743 162.112 586.647 164.224 577.047 164.224C561.879 164.224 549.783 158.848 543.063 144.448C539.415 136.576 538.839 118.336 539.415 98.368C540.375 75.52 544.215 50.368 547.671 36.16C551.319 22.912 559.959 13.696 574.743 13.696C593.943 13.696 619.479 30.208 632.343 43.072ZM629.463 98.944C630.807 98.944 632.151 98.752 633.111 98.176C649.623 92.416 650.391 83.2 669.207 80.704C660.951 84.352 656.727 87.808 653.463 92.224C648.855 102.976 633.495 142.144 645.591 151.168C652.311 156.352 661.719 158.848 669.975 158.848C680.151 158.848 689.943 155.2 696.279 146.944C706.647 133.504 707.799 101.44 708.375 85.312C708.951 59.968 706.839 35.584 703.767 27.904C700.119 20.224 694.935 14.464 685.911 14.464C668.439 14.464 644.823 35.968 634.455 48.448L632.727 50.56L630.807 48.448C618.711 35.776 593.175 18.688 574.743 18.688C569.175 18.688 564.183 20.224 559.767 24.064C547.287 35.776 545.175 82.24 544.407 98.56C543.831 117.952 544.023 135.232 547.671 142.336C553.239 154.624 563.799 159.424 577.047 159.424C580.311 159.424 583.575 159.04 587.223 158.464C601.047 156.352 609.495 152.128 613.143 137.728C616.215 125.632 609.303 99.712 605.847 88.192C603.735 81.472 601.815 75.904 592.791 69.76C602.199 73.024 607.383 77.44 611.799 85.696C615.447 91.072 621.783 98.944 629.463 98.944ZM551.703 105.664C553.431 105.664 554.199 106.432 554.199 108.16C554.007 119.68 554.199 130.048 557.079 137.536C559.575 144.256 564.183 148.48 572.631 148.288C574.359 148.288 575.127 149.056 575.127 150.784C575.127 152.512 573.783 153.28 572.247 153.28C560.727 153.28 554.583 147.328 551.703 136.576C549.399 128.896 549.207 118.912 549.207 108.16C549.207 106.432 549.975 105.664 551.703 105.664Z" fill="#62A0E7"/>
<path fill-rule="evenodd" clip-rule="evenodd" d="M709.095 25.5729L709.098 25.5798C710.998 29.8803 712.445 38.4394 713.355 49.0343C714.271 59.6827 714.656 72.535 714.367 85.5262L714.367 85.5308C713.79 107.06 711.1 128.507 706.433 141.146L706.43 141.156L706.426 141.165C700.303 156.768 686.456 164.84 669.975 164.84C660.022 164.84 649.804 162.111 642.098 155.99C638.661 153.381 636.817 149.339 636.025 144.638C635.233 139.934 635.474 134.467 636.298 128.847C637.774 118.774 641.15 108.029 644.05 99.9516C642.315 100.952 640.377 101.941 638.393 102.771C635.416 104.015 632.249 104.936 629.463 104.936C623.635 104.936 618.821 101.953 614.831 98.3385C616.353 104.375 617.815 111.321 618.742 118.007C619.848 125.991 620.21 133.735 618.915 139.114L618.912 139.127C616.564 148.325 612.803 153.938 607.177 157.755L607.165 157.763C599.059 163.101 586.735 165.224 577.047 165.224C569.35 165.224 562.356 163.861 556.408 160.614C550.446 157.359 545.6 152.248 542.157 144.871L542.156 144.868C540.246 140.748 539.186 134.054 538.657 126.01C538.126 117.924 538.127 108.337 538.415 98.3392L538.416 98.326C539.378 75.4162 543.227 50.1989 546.699 35.9236L546.703 35.909L546.707 35.8945C548.567 29.1396 551.721 23.3339 556.367 19.2119C561.029 15.0765 567.127 12.696 574.743 12.696C584.592 12.696 595.953 16.917 606.402 22.6845C616.474 28.2437 625.812 35.3032 632.296 41.6208C638.089 35.172 646.524 27.1585 655.818 20.6528C665.459 13.9036 676.18 8.66713 685.902 8.66398C691.598 8.56589 696.285 10.2718 700.115 13.2951C703.928 16.3057 706.845 20.5848 709.095 25.5729ZM685.911 9.66398C667.451 9.66398 644.74 29.2536 633.009 42.3237C632.783 42.5756 632.561 42.8251 632.343 43.072C632.11 42.8386 631.872 42.6039 631.63 42.3682C618.554 29.6142 593.595 13.696 574.743 13.696C559.959 13.696 551.319 22.912 547.671 36.16C544.215 50.368 540.375 75.52 539.415 98.368C538.839 118.336 539.415 136.576 543.063 144.448C549.783 158.848 561.879 164.224 577.047 164.224C586.647 164.224 598.743 162.112 606.615 156.928C611.991 153.28 615.639 147.904 617.943 138.88C620.321 129.002 616.948 110.411 613.469 97.0523C613.296 96.3894 613.124 95.7394 612.951 95.104C613.412 95.5852 613.884 96.0622 614.366 96.5307C618.505 100.548 623.445 103.936 629.463 103.936C634.131 103.936 640.201 101.134 644.587 98.4729C645.071 98.1789 645.536 97.8866 645.975 97.6C645.789 98.1012 645.599 98.6163 645.406 99.1441C639.257 116.004 630.424 145.891 642.711 155.2C650.199 161.152 660.183 163.84 669.975 163.84C686.103 163.84 699.543 155.968 705.495 140.8C710.103 128.32 712.791 107.008 713.367 85.504C713.943 59.584 711.831 34.24 708.183 25.984C703.767 16.192 696.855 9.47198 685.911 9.66398ZM632.685 97.2656L632.782 97.2318C639.721 94.811 643.791 91.7888 647.745 88.8523C648.398 88.3668 649.049 87.8837 649.709 87.406C654.41 84.002 659.46 80.9882 669.076 79.7127L669.611 81.6187C661.531 85.1889 657.463 88.526 654.336 92.7255C652.021 98.1393 647.101 110.474 644.236 122.574C642.793 128.67 641.885 134.648 642.069 139.626C642.255 144.644 643.538 148.388 646.189 150.366L646.196 150.371L646.202 150.376C652.709 155.396 661.887 157.848 669.975 157.848C679.92 157.848 689.383 154.287 695.486 146.335L695.487 146.333C700.496 139.84 703.354 128.702 705.009 116.996C706.656 105.346 707.087 93.3517 707.375 85.283C707.662 72.6454 707.279 60.2508 706.442 50.0659C705.604 39.8566 704.318 31.9982 702.85 28.3042C701.061 24.544 698.933 21.3374 696.215 19.0722C693.513 16.8202 690.186 15.464 685.911 15.464C677.518 15.464 667.471 20.6636 658.114 27.5802C648.802 34.4626 640.365 42.8997 635.227 49.0836C635.226 49.0847 635.225 49.0859 635.224 49.087L632.767 52.0905L630.075 49.1297C624.1 42.8721 614.774 35.4938 604.653 29.6832C594.504 23.8562 583.696 19.688 574.743 19.688C569.386 19.688 564.643 21.1557 560.438 24.8061C557.52 27.5528 555.114 32.4385 553.164 38.6496C551.222 44.8357 549.773 52.193 548.685 59.727C546.534 74.6141 545.807 90.0722 545.42 98.3137L545.406 98.5983C545.119 108.285 545.024 117.415 545.453 124.999C545.886 132.638 546.844 138.536 548.561 141.879L548.572 141.901L548.582 141.923C551.282 147.883 555.169 151.986 559.96 154.611C564.764 157.244 570.539 158.424 577.047 158.424C580.234 158.424 583.439 158.049 587.067 157.476L587.072 157.475C593.939 156.426 599.313 154.872 603.411 151.895C607.474 148.944 610.392 144.515 612.174 137.482C612.904 134.606 613.054 130.837 612.787 126.568C612.52 122.311 611.844 117.621 610.96 112.929C609.194 103.549 606.614 94.2299 604.891 88.4859C603.835 85.1239 602.858 82.167 601.063 79.2894C599.276 76.426 596.645 73.5939 592.228 70.5866L593.119 68.8152C597.902 70.4746 601.668 72.4466 604.811 75.0908C607.944 77.7267 610.411 80.9909 612.656 85.1776C614.46 87.8318 616.889 91.0417 619.78 93.5853C622.695 96.1507 625.971 97.944 629.463 97.944C630.753 97.944 631.873 97.7525 632.597 97.3185L632.685 97.2656ZM611.799 85.696C607.968 78.533 603.558 74.2605 596.313 71.1231C595.208 70.6444 594.037 70.1921 592.791 69.76C593.892 70.5097 594.888 71.2509 595.791 71.9867C602.287 77.2801 603.993 82.292 605.847 88.192C609.303 99.712 616.215 125.632 613.143 137.728C609.495 152.128 601.047 156.352 587.223 158.464C583.575 159.04 580.311 159.424 577.047 159.424C563.799 159.424 553.239 154.624 547.671 142.336C544.023 135.232 543.831 117.952 544.407 98.56L544.421 98.2577C545.201 81.674 547.363 35.7045 559.767 24.064C564.183 20.224 569.175 18.688 574.743 18.688C593.175 18.688 618.711 35.776 630.807 48.448L632.727 50.56L634.455 48.448C644.823 35.968 668.439 14.464 685.911 14.464C694.935 14.464 700.119 20.224 703.767 27.904C706.839 35.584 708.951 59.968 708.375 85.312C707.799 101.44 706.647 133.504 696.279 146.944C689.943 155.2 680.151 158.848 669.975 158.848C661.719 158.848 652.311 156.352 645.591 151.168C633.495 142.144 648.855 102.976 653.463 92.224C656.259 88.4416 659.759 85.3634 665.894 82.2657C666.921 81.7468 668.023 81.2274 669.207 80.704C667.91 80.876 666.699 81.0799 665.563 81.3124C657.292 83.0047 652.976 86.2114 648.351 89.6482C644.39 92.5908 640.203 95.7021 633.111 98.176C632.151 98.752 630.807 98.944 629.463 98.944C621.783 98.944 615.447 91.072 611.799 85.696ZM555.199 108.168L555.199 108.177C555.006 119.735 555.214 129.902 558.012 137.177L558.017 137.188C559.22 140.428 560.9 142.978 563.219 144.701C565.528 146.417 568.563 147.38 572.608 147.288L572.62 147.288H572.631C573.62 147.288 574.558 147.505 575.234 148.181C575.91 148.857 576.127 149.795 576.127 150.784C576.127 151.94 575.662 152.863 574.875 153.471C574.123 154.052 573.165 154.28 572.247 154.28C566.308 154.28 561.644 152.741 558.088 149.722C554.548 146.717 552.213 142.337 550.741 136.849C548.391 129.005 548.207 118.874 548.207 108.16C548.207 107.171 548.424 106.233 549.1 105.557C549.776 104.881 550.715 104.664 551.703 104.664C552.692 104.664 553.63 104.881 554.306 105.557C554.982 106.233 555.199 107.171 555.199 108.16V108.168ZM551.703 136.576C554.583 147.328 560.727 153.28 572.247 153.28C573.783 153.28 575.127 152.512 575.127 150.784C575.127 149.056 574.359 148.288 572.631 148.288C564.183 148.48 559.575 144.256 557.079 137.536C554.199 130.048 554.007 119.68 554.199 108.16C554.199 106.432 553.431 105.664 551.703 105.664C549.975 105.664 549.207 106.432 549.207 108.16C549.207 118.912 549.399 128.896 551.703 136.576Z" fill="#62A0E7"/>
<path d="M433.155 164.416C429.315 165.376 425.283 165.76 421.251 165.76C412.035 165.76 403.011 163.072 396.291 156.352C389.379 149.632 388.803 133.312 393.987 113.344C398.595 94.336 407.811 72.064 420.675 51.904C428.739 38.848 447.363 14.272 463.299 14.272C463.875 14.272 463.875 14.464 464.451 14.464C510.339 12.928 532.995 96.256 533.763 131.776V136.576C533.763 138.112 533.763 139.648 533.571 140.992C532.035 157.12 511.107 164.032 497.283 164.032C480.195 164.032 470.019 153.856 465.411 137.728L463.107 137.536C462.723 137.536 462.531 137.536 462.339 137.728C460.035 137.728 457.731 137.536 455.427 137.344L452.739 137.152C451.203 141.184 447.747 151.936 442.755 158.08C440.259 161.344 436.995 163.456 433.155 164.416ZM445.827 130.816C450.627 131.776 455.427 132.352 460.227 132.352C469.251 132.352 477.891 130.816 486.531 127.936C481.539 132.16 476.163 135.04 470.211 136.576C474.627 150.592 482.307 159.04 497.475 159.04C508.803 159.04 527.043 153.664 528.579 140.608C528.771 139.264 528.771 137.728 528.771 136.384V131.968C528.003 97.984 507.267 19.264 464.259 19.264H463.299C463.107 19.072 462.915 19.072 462.339 19.264C459.459 19.264 453.123 20.8 442.755 31.168C422.979 51.52 405.507 87.424 398.787 114.496C394.371 132.928 394.179 147.52 399.555 152.704C405.507 158.272 413.379 160.768 421.251 160.768C425.859 160.768 430.467 160 435.075 158.656C440.835 156.544 446.595 141.184 448.131 135.424C442.179 133.312 436.995 130.432 431.811 126.592C436.227 128.32 441.027 129.856 445.827 130.816ZM473.859 84.16C474.243 86.272 474.435 88.384 474.243 90.304C473.475 97.792 469.827 102.784 462.339 103.744C461.379 103.744 460.611 103.936 459.651 103.936C455.811 103.744 452.547 102.016 451.203 98.368C450.627 96.832 450.243 95.104 450.435 93.184C450.627 85.696 453.315 81.472 456.195 78.976C457.923 77.632 459.651 76.48 461.763 75.904L462.339 75.712C462.915 75.52 463.491 75.52 464.451 75.52C469.635 75.52 472.515 79.36 473.859 84.16ZM456.579 26.56L456.963 26.368C457.155 26.176 457.731 25.984 458.307 25.984C459.267 25.984 459.843 26.368 460.419 26.944C461.187 28.288 460.803 29.632 459.843 30.4L459.459 30.592C448.899 37.696 436.419 56.704 429.315 67.84C428.931 68.8 428.163 69.184 427.203 69.184C427.011 69.184 426.627 68.992 426.051 68.8C424.707 67.84 424.323 66.688 425.283 65.344C432.387 53.632 445.251 34.24 456.579 26.56ZM455.811 89.152C455.427 90.688 455.235 92.032 455.235 93.184C455.235 94.528 455.427 95.68 455.811 96.448C456.003 97.408 456.579 98.176 457.347 98.368C458.115 98.752 458.883 98.944 459.843 98.944C465.603 98.944 468.675 95.872 469.251 89.92C469.443 88 469.443 86.464 469.059 85.312C468.483 82.816 467.139 80.512 464.259 80.512C459.843 80.512 456.963 85.12 455.811 89.152ZM421.059 72.064C421.059 70.336 421.827 69.568 423.555 69.568C425.283 69.568 426.243 70.336 426.243 72.064C426.243 73.792 425.283 74.752 423.555 74.752C421.827 74.752 421.059 73.792 421.059 72.064Z" fill="#62A0E7"/>
<path fill-rule="evenodd" clip-rule="evenodd" d="M534.763 131.765V136.618C534.763 138.115 534.763 139.701 534.564 141.11C533.743 149.63 527.804 155.622 520.499 159.446C513.185 163.275 504.334 165.032 497.283 165.032C488.526 165.032 481.47 162.418 476.012 157.683C470.716 153.089 466.996 146.56 464.644 138.667L463.066 138.536C463.034 138.536 463.007 138.536 462.981 138.536C462.967 138.536 462.956 138.537 462.944 138.537L462.753 138.728H462.339C459.993 138.728 457.655 138.533 455.364 138.342L455.356 138.341L455.344 138.341L453.414 138.203C453.269 138.595 453.11 139.032 452.938 139.509C452.192 141.563 451.187 144.331 449.964 147.215C448.276 151.192 446.123 155.516 443.54 158.699C440.908 162.137 437.452 164.372 433.398 165.386C429.461 166.37 425.344 166.76 421.251 166.76C411.85 166.76 402.544 164.017 395.589 157.064C391.867 153.442 389.969 147.374 389.604 139.864C389.238 132.32 390.41 123.145 393.017 113.101C397.652 93.9861 406.91 71.6182 419.828 51.3722C423.886 44.8033 430.601 35.3333 438.322 27.4904C442.185 23.5674 446.323 20.0271 450.529 17.4622C454.729 14.9013 459.064 13.272 463.299 13.272C463.501 13.272 463.675 13.289 463.837 13.3214C463.989 13.3518 464.111 13.3924 464.183 13.4165L464.191 13.4193C464.265 13.4437 464.283 13.449 464.305 13.4534C464.322 13.4568 464.36 13.4632 464.436 13.4639C476.237 13.0747 486.498 18.1483 495.22 26.4256C503.936 34.6963 511.158 46.2024 516.936 58.8073C528.488 84.0101 534.376 113.856 534.763 131.754L534.763 131.765ZM464.451 14.464C464.163 14.464 464.019 14.416 463.875 14.368C463.731 14.32 463.587 14.272 463.299 14.272C447.363 14.272 428.739 38.848 420.675 51.904C407.811 72.064 398.595 94.336 393.987 113.344C388.803 133.312 389.379 149.632 396.291 156.352C403.011 163.072 412.035 165.76 421.251 165.76C425.283 165.76 429.315 165.376 433.155 164.416C436.995 163.456 440.259 161.344 442.755 158.08C447.052 152.792 450.21 144.091 451.986 139.198C452.274 138.406 452.525 137.714 452.739 137.152L455.427 137.344C457.731 137.536 460.035 137.728 462.339 137.728C462.531 137.536 462.723 137.536 463.107 137.536L465.411 137.728C470.019 153.856 480.195 164.032 497.283 164.032C511.107 164.032 532.035 157.12 533.571 140.992C533.763 139.648 533.763 138.112 533.763 136.576V131.776C532.995 96.256 510.339 12.928 464.451 14.464ZM486.215 126.987L487.177 128.699C482.368 132.769 477.19 135.631 471.485 137.265C473.632 143.712 476.496 148.796 480.474 152.315C484.629 155.991 490.092 158.04 497.475 158.04C503.01 158.04 510.25 156.721 516.264 153.819C522.295 150.91 526.876 146.527 527.586 140.491L527.587 140.479L527.589 140.467C527.769 139.206 527.771 137.744 527.771 136.384V131.979C527.388 115.118 522.041 87.0798 511.442 63.2788C506.142 51.3787 499.556 40.5982 491.672 32.8062C483.798 25.0235 474.677 20.264 464.259 20.264H462.885L462.79 20.1693C462.751 20.1812 462.707 20.1955 462.655 20.2127L462.501 20.264H462.339C459.835 20.264 453.741 21.5978 443.467 31.87C423.846 52.0658 406.447 87.791 399.759 114.733C397.562 123.902 396.428 132.07 396.499 138.557C396.57 145.108 397.869 149.684 400.244 151.979C405.977 157.339 413.586 159.768 421.251 159.768C425.736 159.768 430.238 159.022 434.761 157.706C435.914 157.271 437.198 156.114 438.53 154.344C439.851 152.587 441.127 150.351 442.288 147.97C444.387 143.666 446.06 138.99 446.918 136.047C441.227 133.93 436.213 131.097 431.216 127.396L432.175 125.661C436.553 127.374 441.295 128.89 446.023 129.835C450.774 130.785 455.507 131.352 460.227 131.352C469.133 131.352 477.667 129.837 486.215 126.987ZM448.131 135.424C446.595 141.184 440.835 156.544 435.075 158.656C430.467 160 425.859 160.768 421.251 160.768C413.379 160.768 405.507 158.272 399.555 152.704C394.179 147.52 394.371 132.928 398.787 114.496C405.507 87.424 422.979 51.52 442.755 31.168C453.123 20.8 459.459 19.264 462.339 19.264C462.915 19.072 463.107 19.072 463.299 19.264H464.259C507.267 19.264 528.003 97.984 528.771 131.968V136.384C528.771 137.728 528.771 139.264 528.579 140.608C527.043 153.664 508.803 159.04 497.475 159.04C482.654 159.04 474.982 150.974 470.519 137.529C470.415 137.214 470.312 136.897 470.211 136.576C470.535 136.492 470.857 136.405 471.177 136.314C475.896 134.966 480.252 132.755 484.344 129.682C485.082 129.128 485.81 128.546 486.531 127.936C485.649 128.23 484.767 128.51 483.884 128.776C476.123 131.114 468.33 132.352 460.227 132.352C455.427 132.352 450.627 131.776 445.827 130.816C442.327 130.116 438.827 129.11 435.476 127.946C434.231 127.514 433.007 127.06 431.811 126.592C432.881 127.385 433.952 128.137 435.029 128.849C439.168 131.588 443.408 133.748 448.131 135.424ZM474.835 83.9352L474.843 83.9811C475.236 86.1416 475.443 88.3552 475.238 90.4035L475.238 90.406C474.841 94.2784 473.689 97.6121 471.575 100.117C469.447 102.639 466.421 104.229 462.466 104.736L462.403 104.744H462.339C461.922 104.744 461.543 104.785 461.105 104.834L461.088 104.836C460.665 104.883 460.187 104.936 459.651 104.936H459.626L459.601 104.935C455.491 104.729 451.789 102.847 450.266 98.7163C449.658 97.096 449.233 95.223 449.436 93.1219C449.643 85.3921 452.44 80.9069 455.54 78.2203L455.56 78.2029L455.581 78.1866C457.331 76.8258 459.178 75.5784 461.473 74.9467L462.023 74.7633L462.339 75.712L461.763 75.904C459.651 76.48 457.923 77.632 456.195 78.976C453.315 81.472 450.627 85.696 450.435 93.184C450.243 95.104 450.627 96.832 451.203 98.368C452.547 102.016 455.811 103.744 459.651 103.936C460.131 103.936 460.563 103.888 460.995 103.84C461.427 103.792 461.859 103.744 462.339 103.744C469.827 102.784 473.475 97.792 474.243 90.304C474.435 88.384 474.243 86.272 473.859 84.16C472.515 79.36 469.635 75.52 464.451 75.52C463.491 75.52 462.915 75.52 462.339 75.712L462.023 74.7633C462.755 74.5193 463.481 74.5196 464.348 74.5199C464.382 74.52 464.416 74.52 464.451 74.52C467.32 74.52 469.59 75.5943 471.308 77.3384C473.001 79.0587 474.122 81.3915 474.822 83.8903L474.835 83.9352ZM456.073 25.6951L456.412 25.5255C456.665 25.3334 456.969 25.2166 457.204 25.1461C457.53 25.0483 457.915 24.984 458.307 24.984C459.626 24.984 460.441 25.5519 461.126 26.2369L461.221 26.3316L461.287 26.4478C462.307 28.233 461.8 30.1151 460.468 31.1808L460.385 31.247L459.964 31.4574C454.846 34.9185 449.19 41.31 443.888 48.3079C438.609 55.2752 433.751 62.7476 430.205 68.3048C429.938 68.9218 429.529 69.4059 428.99 69.7295C428.435 70.0622 427.813 70.184 427.203 70.184C427.034 70.184 426.882 70.1496 426.781 70.1218C427.104 70.6811 427.243 71.347 427.243 72.064C427.243 73.1089 426.95 74.0673 426.254 74.7631C425.558 75.4588 424.6 75.752 423.555 75.752C422.508 75.752 421.57 75.4562 420.914 74.7228C420.277 74.0107 420.059 73.0549 420.059 72.064C420.059 71.0754 420.276 70.1367 420.952 69.4609C421.628 68.785 422.566 68.568 423.555 68.568C423.847 68.568 424.137 68.5869 424.418 68.63C424.147 68.2816 423.941 67.8925 423.833 67.4585C423.602 66.5337 423.864 65.624 424.446 64.795C428.007 58.9264 433.011 51.1327 438.551 43.8354C444.084 36.5462 450.212 29.6682 456.018 25.7323L456.073 25.6951ZM425.283 65.344C424.323 66.688 424.707 67.84 426.051 68.8C426.271 68.8733 426.463 68.9466 426.627 69.0093C426.892 69.1106 427.084 69.184 427.203 69.184C428.163 69.184 428.931 68.8 429.315 67.84C436.419 56.704 448.899 37.696 459.459 30.592L459.843 30.4C460.803 29.632 461.187 28.288 460.419 26.944C459.843 26.368 459.267 25.984 458.307 25.984C457.731 25.984 457.155 26.176 456.963 26.368L456.579 26.56C445.251 34.24 432.387 53.632 425.283 65.344ZM456.765 96.1205L456.792 96.2519C456.94 96.9919 457.332 97.3333 457.59 97.3978L457.696 97.4245L457.794 97.4735C458.422 97.7877 459.037 97.944 459.843 97.944C462.545 97.944 464.473 97.2272 465.795 95.9459C467.127 94.6546 467.981 92.6574 468.256 89.8237L468.256 89.8205C468.447 87.9124 468.422 86.5626 468.11 85.6282L468.095 85.5831L468.085 85.5368C467.816 84.3712 467.387 83.3468 466.767 82.6301C466.177 81.9479 465.391 81.512 464.259 81.512C462.434 81.512 460.866 82.4559 459.571 83.9699C458.275 85.4853 457.326 87.4984 456.777 89.4107C456.409 90.8876 456.235 92.1416 456.235 93.184C456.235 94.4647 456.423 95.4354 456.705 96.0008L456.765 96.1205ZM455.811 89.152C456.963 85.12 459.843 80.512 464.259 80.512C467.139 80.512 468.483 82.816 469.059 85.312C469.443 86.464 469.443 88 469.251 89.92C468.675 95.872 465.603 98.944 459.843 98.944C458.883 98.944 458.115 98.752 457.347 98.368C456.579 98.176 456.003 97.408 455.811 96.448C455.427 95.68 455.235 94.528 455.235 93.184C455.235 92.032 455.427 90.688 455.811 89.152ZM423.555 69.568C421.827 69.568 421.059 70.336 421.059 72.064C421.059 73.792 421.827 74.752 423.555 74.752C425.283 74.752 426.243 73.792 426.243 72.064C426.243 70.336 425.283 69.568 423.555 69.568Z" fill="#62A0E7"/>
<path d="M332.85 108.544L332.658 120.64C338.61 117.952 344.754 116.608 350.898 116.608C361.65 116.608 373.17 121.024 377.97 131.584C379.698 135.04 380.466 138.88 380.274 142.912C380.082 147.328 378.546 150.976 376.05 153.856C368.37 163.072 344.946 163.456 334.194 163.456C323.442 163.456 310.578 163.072 299.826 161.728C285.81 160.768 277.554 148.48 275.442 135.616C273.33 122.176 273.138 100.672 273.714 80.128C274.674 59.392 276.21 40.384 276.786 31.168C278.322 10.624 316.338 9.47198 331.122 9.47198C343.218 9.47198 361.074 10.432 372.402 14.08C380.85 16.576 385.458 28.288 386.418 36.352C386.994 41.536 386.802 46.528 385.458 50.944C381.81 61.696 373.746 63.616 363.378 63.616C351.474 63.616 336.882 60.352 330.738 58.816L331.122 73.6C334.77 72.832 341.298 71.872 347.442 71.872C352.626 71.872 357.234 72.448 359.73 74.944C367.602 81.664 367.602 95.872 360.882 102.976C356.082 108.16 347.826 108.928 341.106 108.928C337.842 108.928 334.962 108.736 332.85 108.544ZM339.378 55.552C346.098 57.472 355.698 58.816 363.57 58.816C371.442 58.816 377.778 57.856 380.658 49.6C381.81 45.952 382.002 41.728 381.426 36.928C380.85 30.976 377.394 20.608 370.866 18.688C359.538 15.04 342.834 14.272 330.546 14.272C318.834 14.272 283.314 15.616 281.778 31.552C281.202 40.768 279.666 59.776 278.706 80.32C278.13 100.48 278.13 121.792 280.242 134.656C282.354 145.024 288.498 155.968 300.21 156.928C301.938 156.928 303.666 157.12 305.778 157.12C315.186 157.888 324.786 158.464 334.578 158.464C347.634 158.464 360.114 157.312 368.37 153.664C372.786 151.552 375.282 147.52 375.282 142.72C375.282 142.144 373.362 135.232 372.786 132.928C368.178 124.672 360.306 121.408 350.898 121.408C344.178 121.408 337.65 123.328 331.314 126.976L327.474 129.088L328.05 102.784L330.738 103.168C331.698 103.36 332.85 103.36 334.002 103.552C336.114 103.936 338.802 104.128 341.682 104.128C346.482 104.128 353.586 103.552 357.234 99.52C360.114 96.64 360.882 92.992 360.882 89.152C360.498 80.704 356.274 76.48 348.018 76.48C341.106 76.48 332.85 78.4 329.97 78.976H329.394C329.394 79.168 329.394 79.168 329.202 79.168L326.13 79.744L325.746 56.896C319.602 54.016 315.186 50.176 312.306 45.76C317.874 49.408 321.906 50.944 325.746 52.288L329.01 53.248H329.202C329.586 53.248 329.778 53.248 329.97 53.44L333.234 54.208C334.962 54.592 336.882 54.976 339.378 55.552ZM348.978 18.112C351.858 18.688 353.586 19.072 354.546 19.264H354.738C356.466 19.84 357.042 20.8 356.466 22.336C356.274 23.68 355.506 24.256 354.162 24.256C353.97 24.256 353.778 24.064 353.586 24.064H353.202C351.666 23.488 346.866 22.144 335.922 22.144C328.434 22.144 318.834 22.528 305.202 24.64C303.858 24.832 302.514 23.872 302.514 22.528C302.322 20.8 302.898 19.84 304.626 19.648C318.258 17.92 328.242 17.344 335.73 17.344C341.682 17.344 346.098 17.536 348.978 18.112ZM358.578 23.296C358.578 21.568 359.346 20.608 361.074 20.608C362.802 20.608 363.762 21.568 363.762 23.296C363.762 25.024 362.802 25.792 361.074 25.792C359.346 25.792 358.578 25.024 358.578 23.296Z" fill="#62A0E7"/>
<path fill-rule="evenodd" clip-rule="evenodd" d="M274.455 135.778L274.454 135.771C272.326 122.23 272.138 100.642 272.714 80.1L272.715 80.0909L272.715 80.0817C273.409 65.0956 274.404 50.9975 275.12 40.8611C275.395 36.9663 275.629 33.6563 275.788 31.1056L275.789 31.0934C276.199 25.6069 279.059 21.4389 283.246 18.3099C287.409 15.1996 292.912 13.0885 298.746 11.6453C310.417 8.75784 323.722 8.47198 331.122 8.47198C343.218 8.47198 361.206 9.42705 372.697 13.1245C377.278 14.4825 380.71 18.2951 383.095 22.6474C385.492 27.0207 386.918 32.0904 387.411 36.2338L387.412 36.2416C387.997 41.5113 387.811 46.649 386.415 51.2351L386.41 51.2503L386.405 51.2653C384.505 56.8647 381.41 60.2582 377.374 62.2121C373.394 64.1385 368.597 64.616 363.378 64.616C352.108 64.616 338.507 61.7299 331.772 60.1L332.091 72.3868C335.911 71.6611 341.826 70.872 347.442 70.872C350.061 70.872 352.591 71.0165 354.805 71.4945C357 71.9683 358.974 72.7886 360.409 74.2085C364.591 77.7964 366.628 83.313 366.778 88.7887C366.927 94.272 365.189 99.8758 361.612 103.66C359.032 106.444 355.562 108.002 351.947 108.868C348.33 109.736 344.495 109.928 341.106 109.928C338.328 109.928 335.827 109.791 333.833 109.632L333.683 119.107C339.309 116.777 345.1 115.608 350.898 115.608C361.854 115.608 373.842 120.108 378.873 131.154C380.676 134.768 381.472 138.774 381.273 142.959C381.071 147.591 379.454 151.452 376.812 154.504C374.74 156.986 371.665 158.814 368.143 160.177C364.607 161.544 360.546 162.47 356.425 163.101C348.184 164.361 339.575 164.456 334.194 164.456C323.436 164.456 310.537 164.073 299.73 162.724C285.069 161.704 276.603 148.86 274.455 135.778ZM299.826 161.728C310.578 163.072 323.442 163.456 334.194 163.456C344.946 163.456 368.37 163.072 376.05 153.856C378.546 150.976 380.082 147.328 380.274 142.912C380.466 138.88 379.698 135.04 377.97 131.584C373.17 121.024 361.65 116.608 350.898 116.608C345.1 116.608 339.302 117.805 333.665 120.199C333.329 120.342 332.993 120.489 332.658 120.64L332.85 108.544C333.166 108.573 333.5 108.601 333.849 108.63C335.833 108.789 338.331 108.928 341.106 108.928C347.826 108.928 356.082 108.16 360.882 102.976C367.602 95.872 367.602 81.664 359.73 74.944C357.234 72.448 352.626 71.872 347.442 71.872C341.823 71.872 335.882 72.6751 332.117 73.3998C331.766 73.4675 331.433 73.5344 331.122 73.6L330.738 58.816C331.052 58.8945 331.388 58.9775 331.745 59.0644C338.367 60.6771 352.082 63.616 363.378 63.616C373.746 63.616 381.81 61.696 385.458 50.944C386.802 46.528 386.994 41.536 386.418 36.352C385.458 28.288 380.85 16.576 372.402 14.08C361.074 10.432 343.218 9.47198 331.122 9.47198C316.338 9.47198 278.322 10.624 276.786 31.168C276.626 33.7294 276.392 37.0471 276.116 40.9481C275.401 51.0831 274.407 65.1551 273.714 80.128C273.138 100.672 273.33 122.176 275.442 135.616C277.554 148.48 285.81 160.768 299.826 161.728ZM339.628 54.5834L339.653 54.5905C346.279 56.4836 355.786 57.816 363.57 57.816C367.499 57.816 370.866 57.5691 373.588 56.3868C376.234 55.2372 378.352 53.1642 379.709 49.2847C380.8 45.8189 380.998 41.753 380.433 37.0471L380.432 37.0357L380.431 37.0243C380.153 34.1581 379.175 30.1958 377.48 26.736C375.766 23.2384 373.437 20.4866 370.584 19.6474L370.572 19.6438L370.56 19.6399C359.397 16.0451 342.836 15.272 330.546 15.272C324.71 15.272 312.989 15.6084 302.562 17.9124C297.343 19.0656 292.522 20.6963 288.935 22.9733C285.363 25.2406 283.124 28.071 282.775 31.6316C282.612 34.2326 282.374 37.6015 282.095 41.5571C281.38 51.6667 280.395 65.6086 279.705 80.3576C279.13 100.519 279.135 121.721 281.226 134.475C283.316 144.714 289.276 155.005 300.252 155.928C301.086 155.929 301.917 155.973 302.758 156.018L302.903 156.025C303.814 156.073 304.751 156.12 305.778 156.12H305.819L305.859 156.123C315.254 156.89 324.824 157.464 334.578 157.464C347.617 157.464 359.904 156.307 367.952 152.755C371.999 150.814 374.27 147.152 374.282 142.755C374.281 142.746 374.278 142.731 374.275 142.709C374.264 142.646 374.246 142.557 374.221 142.439C374.17 142.205 374.096 141.89 374.002 141.511C373.815 140.754 373.559 139.771 373.283 138.728C373.101 138.04 372.911 137.324 372.726 136.633C372.375 135.316 372.047 134.087 371.849 133.301C367.458 125.534 360.013 122.408 350.898 122.408C344.377 122.408 338.02 124.269 331.813 127.843L331.805 127.848L326.436 130.8L327.075 101.635L330.907 102.182L330.934 102.187C331.351 102.271 331.824 102.315 332.385 102.364L332.464 102.371C332.987 102.416 333.574 102.467 334.166 102.566L334.174 102.567L334.181 102.568C336.215 102.938 338.839 103.128 341.682 103.128C344.051 103.128 346.941 102.985 349.667 102.361C352.406 101.735 354.865 100.648 356.493 98.8491L356.509 98.8306L356.527 98.8129C359.134 96.2055 359.879 92.8798 359.882 89.1748C359.694 85.1086 358.59 82.2285 356.699 80.3591C354.811 78.492 351.982 77.48 348.018 77.48C342.04 77.48 335.019 78.9463 331.425 79.6968C330.939 79.7982 330.516 79.8867 330.166 79.9566L330.069 79.976H329.927C329.71 80.1243 329.495 80.1509 329.424 80.1589C329.381 80.1636 329.338 80.1659 329.3 80.167L325.15 80.9452L324.757 57.5317C318.758 54.6138 314.373 50.7594 311.468 46.3063L312.854 44.9235C318.317 48.5025 322.26 50.0079 326.053 51.3358L329.154 52.248H329.202C329.223 52.248 329.245 52.2478 329.269 52.2475C329.536 52.245 329.984 52.2406 330.41 52.5162L333.457 53.2331C334.082 53.3719 334.743 53.5131 335.455 53.665C336.671 53.9246 338.032 54.2152 339.603 54.5776L339.628 54.5834ZM333.234 54.208L329.97 53.44C329.778 53.248 329.586 53.248 329.202 53.248H329.01L325.746 52.288C322.444 51.1324 319.001 49.8348 314.561 47.1749C313.837 46.7412 313.087 46.2714 312.306 45.76C312.791 46.5036 313.32 47.2308 313.892 47.9399C316.722 51.442 320.637 54.5009 325.746 56.896L326.13 79.744L329.202 79.168C329.394 79.168 329.394 79.168 329.394 78.9762C329.394 78.9761 329.394 78.9762 329.394 78.9762L329.97 78.976C330.311 78.9078 330.727 78.8207 331.208 78.7203C334.786 77.9722 341.924 76.48 348.018 76.48C356.274 76.48 360.498 80.704 360.882 89.152C360.882 92.992 360.114 96.64 357.234 99.52C353.586 103.552 346.482 104.128 341.682 104.128C338.802 104.128 336.114 103.936 334.002 103.552C333.45 103.46 332.898 103.412 332.367 103.366C331.79 103.316 331.238 103.268 330.738 103.168L328.05 102.784L327.474 129.088L331.314 126.976C337.65 123.328 344.178 121.408 350.898 121.408C360.306 121.408 368.178 124.672 372.786 132.928C372.978 133.696 373.319 134.976 373.689 136.363C374.429 139.136 375.282 142.336 375.282 142.72C375.282 147.52 372.786 151.552 368.37 153.664C360.114 157.312 347.634 158.464 334.578 158.464C324.786 158.464 315.186 157.888 305.778 157.12C304.669 157.12 303.666 157.067 302.713 157.017C301.851 156.971 301.031 156.928 300.21 156.928C288.498 155.968 282.354 145.024 280.242 134.656C278.13 121.792 278.13 100.48 278.706 80.32C279.396 65.5548 280.384 51.583 281.098 41.4696C281.378 37.5115 281.616 34.1443 281.778 31.552C283.314 15.616 318.834 14.272 330.546 14.272C342.834 14.272 359.538 15.04 370.866 18.688C377.394 20.608 380.85 30.976 381.426 36.928C382.002 41.728 381.81 45.952 380.658 49.6C377.778 57.856 371.442 58.816 363.57 58.816C355.698 58.816 346.098 57.472 339.378 55.552C337.811 55.1904 336.471 54.9045 335.264 54.6467C334.547 54.4939 333.877 54.3509 333.234 54.208ZM354.9 18.264L355.054 18.3153C356.013 18.6349 356.867 19.1265 357.334 19.9439C357.806 20.7685 357.754 21.6905 357.439 22.5855C357.308 23.377 356.987 24.0805 356.377 24.5761C355.75 25.0851 354.964 25.256 354.162 25.256C353.95 25.256 353.777 25.2036 353.667 25.1623C353.576 25.1281 353.492 25.087 353.446 25.064H353.021L352.851 25.0003C351.465 24.4805 346.794 23.144 335.922 23.144C328.478 23.144 318.929 23.5251 305.355 25.6282L305.343 25.63C303.545 25.8869 301.552 24.63 301.515 22.5866C301.416 21.6419 301.5 20.6968 302.031 19.9385C302.591 19.1379 303.488 18.7697 304.508 18.655C318.168 16.9237 328.193 16.344 335.73 16.344C341.675 16.344 346.184 16.5334 349.174 17.1314C350.619 17.4203 351.774 17.661 352.688 17.8534C352.936 17.9056 353.165 17.9541 353.377 17.9988C353.898 18.109 354.315 18.197 354.646 18.264H354.9ZM354.546 19.264C354.195 19.1937 353.74 19.0977 353.164 18.9759C352.167 18.7651 350.804 18.4771 348.978 18.112C346.098 17.536 341.682 17.344 335.73 17.344C328.242 17.344 318.258 17.92 304.626 19.648C302.898 19.84 302.322 20.8 302.514 22.528C302.514 23.872 303.858 24.832 305.202 24.64C318.834 22.528 328.434 22.144 335.922 22.144C346.866 22.144 351.666 23.488 353.202 24.064H353.586C353.682 24.064 353.778 24.112 353.874 24.16C353.97 24.208 354.066 24.256 354.162 24.256C355.506 24.256 356.274 23.68 356.466 22.336C357.042 20.8 356.466 19.84 354.738 19.264H354.546ZM358.433 20.6372C359.089 19.9038 360.027 19.608 361.074 19.608C362.119 19.608 363.077 19.9011 363.773 20.5969C364.469 21.2926 364.762 22.2511 364.762 23.296C364.762 24.343 364.466 25.281 363.733 25.9372C363.021 26.5743 362.065 26.792 361.074 26.792C360.085 26.792 359.147 26.5749 358.471 25.8991C357.795 25.2233 357.578 24.2846 357.578 23.296C357.578 22.3051 357.796 21.3493 358.433 20.6372ZM361.074 20.608C359.346 20.608 358.578 21.568 358.578 23.296C358.578 25.024 359.346 25.792 361.074 25.792C362.802 25.792 363.762 25.024 363.762 23.296C363.762 21.568 362.802 20.608 361.074 20.608Z" fill="#62A0E7"/>
<path d="M202.013 136.192C202.013 145.984 200.093 156.16 193.757 160.576C188.573 164.224 173.021 164.992 167.069 164.992C156.701 164.992 142.109 163.648 136.541 153.856C132.893 147.52 132.317 128.32 132.893 106.816C133.853 80.32 137.117 49.408 140.189 36.544C145.757 13.696 178.397 6.784 198.749 6.784C214.301 6.784 232.157 10.048 245.405 18.304C262.685 28.672 273.245 45.952 268.637 71.104C265.565 88 254.429 98.368 237.725 100.48C237.533 100.48 237.341 100.672 237.149 100.672C242.333 106.048 246.749 111.424 251.357 117.376C258.077 125.632 263.645 135.04 263.261 139.264C262.301 153.088 247.133 162.112 234.077 162.112C232.925 162.112 231.965 162.112 231.389 161.92H231.005C213.917 160.96 206.237 140.8 201.629 126.784C201.821 129.664 202.013 132.928 202.013 136.192ZM204.125 117.76C205.853 123.904 208.541 133.312 212.957 141.568C218.141 150.976 223.133 157.12 234.077 157.12C244.829 157.12 256.733 150.4 258.269 138.88C258.845 135.808 253.277 128.128 247.325 120.448C242.141 113.728 236.957 107.584 231.389 101.44L230.621 100.672C223.709 99.904 216.029 96.448 212.189 91.84C221.981 95.488 226.781 95.872 231.389 95.872C248.285 95.872 260.765 87.04 263.837 70.144C267.869 47.68 258.653 32.512 243.677 23.104C230.813 14.848 213.917 11.584 198.749 11.584C180.893 11.584 149.597 17.536 144.989 37.696C141.917 50.56 138.845 80.32 137.885 107.008C137.309 127.552 137.885 145.6 140.957 151.36C144.989 159.04 159.005 160 167.069 160C171.485 160 175.517 159.808 179.357 159.232C186.845 158.464 190.685 158.464 193.757 153.28C198.941 144.448 197.021 126.208 195.869 118.144V117.76C195.677 115.648 195.869 114.304 196.637 113.344C197.213 112.192 198.173 111.616 199.325 111.616C202.205 111.616 203.549 115.456 204.125 117.76ZM202.397 77.056C199.133 79.744 195.485 81.088 191.837 81.088C186.461 81.088 179.357 76.672 177.245 71.872C176.477 69.76 176.285 67.456 176.861 65.152C179.357 56.896 189.533 50.368 197.981 50.368C199.901 50.368 201.437 50.56 202.589 50.944C203.165 51.136 203.741 51.328 204.317 51.52C208.925 53.824 211.037 57.28 211.037 61.12C211.229 63.424 210.845 65.728 209.501 68.224C207.965 71.488 205.661 74.56 202.397 77.056ZM204.893 66.304C205.853 64.576 206.237 63.04 206.237 61.312C206.045 59.008 204.701 57.28 202.397 55.936C201.821 55.744 200.285 55.36 197.981 55.36C192.029 55.36 183.197 60.736 181.661 66.688C181.277 67.648 181.277 68.8 181.853 69.952C183.197 73.216 188.765 76.288 192.029 76.288C196.829 76.288 202.397 71.488 204.893 66.304ZM244.829 83.968C250.589 80.896 253.853 72.256 255.389 66.688C256.733 59.968 256.349 52.288 252.317 44.8C250.973 42.304 249.245 39.808 246.941 37.504C245.981 36.544 246.173 34.816 247.133 34.048C247.517 33.472 248.093 33.28 248.669 33.28C251.165 33.28 255.773 40.384 256.733 42.496C261.341 50.944 261.725 59.968 260.189 67.648C258.461 75.328 254.813 82.048 250.781 85.696C249.821 86.656 247.517 88.576 245.981 88.576C244.637 88.576 243.869 88 243.677 86.656V85.696C243.869 84.928 244.253 84.352 244.829 83.968ZM240.989 30.592C240.989 28.864 241.949 28.096 243.677 28.096C245.405 28.096 246.173 28.864 246.173 30.592C246.173 32.32 245.405 33.28 243.677 33.28C241.949 33.28 240.989 32.32 240.989 30.592Z" fill="#62A0E7"/>
<path fill-rule="evenodd" clip-rule="evenodd" d="M237.908 101.465C242.767 106.578 246.975 111.717 251.357 117.376C258.077 125.632 263.645 135.04 263.261 139.264C262.301 153.088 247.133 162.112 234.077 162.112C232.925 162.112 231.965 162.112 231.389 161.92H231.005C215.34 161.04 207.582 144.026 202.848 130.401C202.418 129.162 202.013 127.952 201.629 126.784C201.709 127.996 201.79 129.275 201.857 130.594C201.948 132.41 202.013 134.301 202.013 136.192C202.013 145.984 200.093 156.16 193.757 160.576C188.573 164.224 173.021 164.992 167.069 164.992C156.701 164.992 142.109 163.648 136.541 153.856C132.893 147.52 132.317 128.32 132.893 106.816C133.853 80.32 137.117 49.408 140.189 36.544C145.757 13.696 178.397 6.784 198.749 6.784C214.301 6.784 232.157 10.048 245.405 18.304C262.685 28.672 273.245 45.952 268.637 71.104C265.599 87.812 254.675 98.1365 238.28 100.406C238.096 100.432 237.91 100.457 237.725 100.48C237.629 100.48 237.533 100.528 237.437 100.576C237.341 100.624 237.245 100.672 237.149 100.672C237.342 100.872 237.534 101.072 237.725 101.273C237.763 101.313 237.802 101.353 237.84 101.394C237.86 101.415 237.88 101.436 237.9 101.457C237.901 101.458 237.902 101.459 237.904 101.461C237.905 101.462 237.906 101.463 237.908 101.465ZM239.122 101.294C243.806 106.268 247.898 111.275 252.14 116.754C255.525 120.914 258.629 125.374 260.846 129.345C261.954 131.33 262.852 133.213 263.449 134.887C264.037 136.534 264.37 138.073 264.257 139.343C263.748 146.623 259.502 152.578 253.788 156.684C248.077 160.788 240.817 163.112 234.077 163.112H234.058C233.496 163.112 232.946 163.112 232.464 163.087C232.052 163.065 231.625 163.023 231.243 162.92H230.976L230.948 162.918C221.965 162.414 215.527 156.85 210.806 149.805C207.498 144.869 204.982 139.135 202.979 133.731C203 134.547 203.013 135.369 203.013 136.192C203.013 141.143 202.528 146.239 201.22 150.682C199.914 155.117 197.756 159.007 194.33 161.395C192.883 162.412 190.799 163.18 188.485 163.774C186.149 164.373 183.487 164.818 180.822 165.145C175.493 165.799 170.076 165.992 167.069 165.992C161.855 165.992 155.509 165.656 149.738 164.06C143.975 162.466 138.642 159.573 135.672 154.352C134.675 152.618 133.931 150.096 133.367 147.038C132.799 143.958 132.4 140.249 132.135 136.088C131.604 127.763 131.605 117.553 131.893 106.789L131.893 106.78C132.854 80.2663 136.12 49.2744 139.216 36.3117L139.217 36.3072C142.112 24.4282 152.02 16.8052 163.551 12.1682C175.1 7.52446 188.482 5.784 198.749 5.784C214.404 5.784 232.463 9.06378 245.926 17.4508C254.696 22.7141 261.806 29.7595 266.129 38.7257C270.457 47.7001 271.957 58.5267 269.62 71.2829C268.052 79.9089 264.412 86.9278 258.979 92.0627C253.819 96.94 247.094 100.068 239.122 101.294ZM195.869 118.144V117.76C195.677 115.648 195.869 114.304 196.637 113.344C197.213 112.192 198.173 111.616 199.325 111.616C202.205 111.616 203.549 115.456 204.125 117.76C205.853 123.904 208.541 133.312 212.957 141.568C218.141 150.976 223.133 157.12 234.077 157.12C244.829 157.12 256.733 150.4 258.269 138.88C258.845 135.808 253.277 128.128 247.325 120.448C242.141 113.728 236.957 107.584 231.389 101.44L230.621 100.672C224.552 99.9977 217.892 97.2516 213.758 93.4731C213.183 92.9477 212.657 92.4025 212.189 91.84C212.914 92.1103 213.612 92.3626 214.285 92.5982C222.691 95.5428 227.122 95.872 231.389 95.872C248.285 95.872 260.765 87.04 263.837 70.144C267.869 47.68 258.653 32.512 243.677 23.104C230.813 14.848 213.917 11.584 198.749 11.584C180.893 11.584 149.597 17.536 144.989 37.696C141.917 50.56 138.845 80.32 137.885 107.008C137.309 127.552 137.885 145.6 140.957 151.36C144.989 159.04 159.005 160 167.069 160C171.485 160 175.517 159.808 179.357 159.232C179.896 159.177 180.416 159.125 180.919 159.076C187.394 158.437 190.906 158.091 193.757 153.28C198.941 144.448 197.021 126.208 195.869 118.144ZM138.884 107.04C139.844 80.368 142.913 50.6915 145.961 37.9283L145.963 37.9188C148.154 28.3364 156.725 21.9846 167.253 18.0157C177.745 14.0607 189.907 12.584 198.749 12.584C213.801 12.584 230.488 15.8277 243.136 23.9456L243.145 23.9508C250.506 28.5752 256.406 34.5855 259.98 42.155C263.552 49.718 264.836 58.9104 262.853 69.9651C261.356 78.1982 257.584 84.3996 252.187 88.5514C246.781 92.7101 239.665 94.872 231.389 94.872C226.905 94.872 222.223 94.5111 212.538 90.9029L209.011 89.5891L211.42 92.4802C215.405 97.2616 223.162 100.762 230.159 101.625L230.664 102.13C236.21 108.25 241.371 114.368 246.533 121.059L246.534 121.061C249.51 124.9 252.363 128.707 254.399 131.926C255.418 133.538 256.213 134.973 256.717 136.171C257.238 137.413 257.372 138.234 257.286 138.696L257.281 138.722L257.277 138.748C255.832 149.584 244.542 156.12 234.077 156.12C228.819 156.12 225.066 154.654 221.996 152.103C218.886 149.519 216.417 145.775 213.835 141.091C209.482 132.951 206.821 123.653 205.091 117.503C204.795 116.321 204.286 114.674 203.44 113.3C202.599 111.934 201.279 110.616 199.325 110.616C197.811 110.616 196.536 111.386 195.79 112.804C194.831 114.065 194.683 115.714 194.869 117.805V118.215L194.879 118.285C195.452 122.296 196.212 128.818 196.189 135.42C196.165 142.071 195.342 148.603 192.895 152.772C191.477 155.164 189.94 156.296 187.902 156.961C186.063 157.562 183.835 157.782 180.835 158.079C180.33 158.129 179.804 158.181 179.255 158.237L179.231 158.24L179.208 158.243C175.436 158.809 171.458 159 167.069 159C163.063 159 157.635 158.76 152.733 157.587C147.781 156.403 143.647 154.333 141.842 150.895L141.839 150.889C141.149 149.596 140.558 147.519 140.086 144.722C139.617 141.948 139.278 138.55 139.051 134.67C138.597 126.912 138.597 117.298 138.884 107.04ZM176.316 72.2446L176.305 72.2137C175.474 69.9302 175.262 67.4226 175.89 64.9095L175.896 64.8859L175.903 64.8626C177.236 60.4554 180.584 56.5895 184.626 53.8375C188.669 51.0839 193.518 49.368 197.981 49.368C199.953 49.368 201.609 49.5635 202.905 49.9953L204.7 50.5938L204.764 50.6256C209.635 53.0612 212.021 56.8143 212.036 61.0782C212.235 63.5485 211.814 66.0264 210.394 68.6742C208.798 72.0565 206.405 75.2462 203.018 77.8395C199.598 80.6514 195.735 82.088 191.837 82.088C188.904 82.088 185.601 80.8962 182.785 79.1267C179.972 77.3596 177.493 74.9201 176.329 72.2747L176.316 72.2446ZM202.397 77.056C199.133 79.744 195.485 81.088 191.837 81.088C186.461 81.088 179.357 76.672 177.245 71.872C176.477 69.76 176.285 67.456 176.861 65.152C179.357 56.896 189.533 50.368 197.981 50.368C199.901 50.368 201.437 50.56 202.589 50.944L204.317 51.52C208.925 53.824 211.037 57.28 211.037 61.12C211.229 63.424 210.845 65.728 209.501 68.224C207.965 71.488 205.661 74.56 202.397 77.056ZM204.004 65.8439L204.018 65.8184C204.891 64.247 205.23 62.8879 205.236 61.3544C205.07 59.5168 204.024 58.0683 201.985 56.8542C201.433 56.6844 200.047 56.36 197.981 56.36C195.261 56.36 191.756 57.6072 188.718 59.625C185.668 61.6507 183.308 64.3049 182.629 66.9379L182.613 66.9999L182.589 67.0594C182.312 67.7516 182.297 68.6058 182.747 69.5048L182.763 69.5375L182.777 69.5713C183.328 70.9086 184.837 72.3522 186.734 73.4856C188.621 74.6135 190.648 75.288 192.029 75.288C194.115 75.288 196.49 74.2312 198.699 72.4599C200.892 70.7006 202.812 68.321 203.992 65.8702L204.004 65.8439ZM202.397 55.936C204.701 57.28 206.045 59.008 206.237 61.312C206.237 63.04 205.853 64.576 204.893 66.304C202.397 71.488 196.829 76.288 192.029 76.288C188.765 76.288 183.197 73.216 181.853 69.952C181.277 68.8 181.277 67.648 181.661 66.688C183.197 60.736 192.029 55.36 197.981 55.36C200.285 55.36 201.821 55.744 202.397 55.936ZM244.315 83.1087L244.358 83.0856C246.981 81.6868 249.119 78.964 250.81 75.7934C252.484 72.6557 253.657 69.1966 254.415 66.4569C255.714 59.9273 255.33 52.5062 251.436 45.2741C250.13 42.8489 248.458 40.4353 246.233 38.2111C245.511 37.4887 245.254 36.5121 245.319 35.6301C245.38 34.8045 245.732 33.954 246.389 33.3673C247.008 32.5368 247.9 32.28 248.669 32.28C249.209 32.28 249.722 32.4684 250.168 32.7098C250.622 32.9553 251.072 33.2915 251.505 33.6708C252.371 34.4291 253.256 35.4385 254.066 36.4827C255.666 38.5431 257.093 40.8883 257.627 42.0482C262.357 50.7392 262.738 60.0007 261.169 67.8441L261.167 67.8558L261.164 67.8675C259.408 75.6745 255.689 82.5933 251.47 86.421C250.952 86.9369 250.096 87.6899 249.156 88.3246C248.68 88.6462 248.164 88.9506 247.643 89.1776C247.133 89.4001 246.557 89.576 245.981 89.576C245.178 89.576 244.392 89.4051 243.766 88.8961C243.128 88.378 242.806 87.6329 242.687 86.7974L242.677 86.7271V85.5729L242.706 85.4535C242.949 84.4812 243.461 83.6778 244.274 83.136L244.315 83.1087ZM250.781 85.696C254.813 82.048 258.461 75.328 260.189 67.648C261.725 59.968 261.341 50.944 256.733 42.496C255.773 40.384 251.165 33.28 248.669 33.28C248.093 33.28 247.517 33.472 247.133 34.048C246.173 34.816 245.981 36.544 246.941 37.504C249.245 39.808 250.973 42.304 252.317 44.8C256.349 52.288 256.733 59.968 255.389 66.688C253.853 72.256 250.589 80.896 244.829 83.968C244.253 84.352 243.869 84.928 243.677 85.696V86.656C243.869 88 244.637 88.576 245.981 88.576C247.517 88.576 249.821 86.656 250.781 85.696ZM241.018 27.9508C241.73 27.3136 242.686 27.096 243.677 27.096C244.665 27.096 245.604 27.313 246.28 27.9889C246.956 28.6647 247.173 29.6034 247.173 30.592C247.173 31.5829 246.955 32.5387 246.318 33.2508C245.662 33.9842 244.724 34.28 243.677 34.28C242.632 34.28 241.673 33.9869 240.977 33.2911C240.282 32.5954 239.989 31.6369 239.989 30.592C239.989 29.5449 240.284 28.607 241.018 27.9508ZM243.677 28.096C241.949 28.096 240.989 28.864 240.989 30.592C240.989 32.32 241.949 33.28 243.677 33.28C245.405 33.28 246.173 32.32 246.173 30.592C246.173 28.864 245.405 28.096 243.677 28.096Z" fill="#62A0E7"/>
<path d="M70.3786 163.072C61.7386 163.072 52.3306 161.152 45.2266 155.776C44.2666 158.656 42.5386 161.92 40.8106 162.496C38.6986 163.84 35.4346 164.224 33.1306 164.224C26.2186 164.224 19.3066 162.88 15.2746 156.736C5.09855 140.992 2.41055 89.728 2.02655 71.296C1.45055 52.288 2.41055 34.816 5.48255 28.288C9.89855 18.496 19.3066 14.848 29.2906 14.848C36.0106 14.848 41.0026 15.424 45.4186 20.992C52.7146 17.344 60.2026 15.616 68.0746 15.424C102.443 14.848 128.939 48.256 129.515 80.896C129.707 101.44 123.371 119.872 114.155 134.464C103.979 150.208 89.9626 163.072 70.3786 163.072ZM75.9466 157.888C90.1546 156.352 102.827 143.296 110.123 131.776C118.763 117.952 124.715 100.288 124.523 80.896C123.947 50.944 100.139 20.416 68.6506 20.416C60.7785 20.416 53.0986 22.336 45.8026 26.368L44.0746 27.328C39.6586 30.208 35.6266 34.24 31.9786 40.384C33.5146 33.28 36.0106 28.288 41.5786 23.872C37.9306 19.84 34.0906 19.84 29.2906 19.84C21.0346 19.84 13.7386 22.144 10.0906 30.4C7.59456 36.544 6.44255 52.672 7.01855 71.296C7.78655 88.576 9.89856 139.072 19.4986 154.048C22.3786 158.464 28.1386 159.232 32.9386 159.232C35.8186 159.232 37.1626 158.848 38.5066 158.272C38.6986 158.08 38.8906 158.08 39.0826 157.888C39.6586 157.696 41.0026 152.704 41.5786 151.168C37.7386 145.216 36.9706 139.456 37.1626 133.12C40.0426 140.224 41.5786 144.448 44.4586 148.096L45.4186 149.248C46.3786 150.208 46.9546 151.168 48.2986 151.936C54.4426 156.544 62.6986 158.08 70.3786 158.08H73.0666C74.0266 158.08 74.9866 158.08 75.9466 157.888ZM72.1066 88.384C69.8026 93.568 65.5786 98.56 60.0106 98.944H59.8186C53.8666 98.944 46.1866 96.448 46.1866 89.344C45.9946 87.808 46.3786 86.08 47.1466 83.968C50.2186 76.288 55.9786 70.912 64.4266 70.912C69.0346 71.488 71.3386 73.792 72.6826 77.056C73.4506 78.784 73.6426 80.704 73.4506 83.2C73.2586 84.928 72.8746 86.656 72.1066 88.384ZM80.9386 30.976C76.5226 29.632 72.1066 29.056 67.6906 28.864C65.9626 28.864 65.1946 28.096 65.1946 26.368C65.1946 24.64 65.9626 23.872 67.6906 23.872C77.8666 24.064 87.6586 26.944 95.9146 33.28C108.779 43.072 112.811 58.048 112.811 59.008C113.195 62.08 108.011 62.848 107.819 59.392C107.819 58.624 104.747 45.952 92.8426 37.12C89.1946 34.24 85.1626 32.32 80.9386 30.976ZM50.9866 89.152C51.1786 92.992 56.1706 93.952 59.0506 93.952C64.4266 93.952 67.8826 87.232 68.4586 82.624C68.6506 81.28 68.6506 79.936 68.0746 78.784C67.4986 77.056 66.1546 76.096 64.0426 75.712C57.7066 75.712 50.9866 83.008 50.9866 89.152ZM58.4746 26.368C58.4746 24.64 59.4346 23.68 61.1626 23.68C62.8906 23.68 63.6586 24.64 63.6586 26.368C63.6586 28.096 62.8906 28.864 61.1626 28.864C59.4346 28.864 58.4746 28.096 58.4746 26.368Z" fill="#62A0E7"/>
<path fill-rule="evenodd" clip-rule="evenodd" d="M14.4385 157.285L14.4347 157.279C11.7921 153.19 9.68553 146.892 7.99124 139.561C6.29078 132.204 4.98359 123.704 3.98528 115.14C1.98886 98.0138 1.21947 80.5594 1.02687 71.3215C0.73837 61.7969 0.834048 52.6425 1.38921 45.0391C1.94037 37.4906 2.95238 31.3218 4.57426 27.8696C9.21253 17.5933 19.0836 13.848 29.2906 13.848C32.6584 13.848 35.7222 13.9883 38.5218 14.879C41.1525 15.7161 43.506 17.1998 45.6873 19.7459C52.8967 16.2686 60.2971 14.6134 68.0502 14.4243L68.0578 14.4241C85.5877 14.1303 101.068 22.5061 112.214 35.0394C123.355 47.5671 130.222 64.3052 130.514 80.8783L130.515 80.8866C130.709 101.644 124.307 120.262 115 134.998L114.994 135.007C104.748 150.86 90.4682 164.072 70.3786 164.072C62.0452 164.072 52.9042 162.314 45.713 157.36C45.2769 158.462 44.7477 159.566 44.1582 160.524C43.7495 161.188 43.2981 161.805 42.8116 162.305C42.3633 162.766 41.841 163.175 41.2501 163.401C38.8884 164.854 35.4437 165.224 33.1306 165.224C26.1444 165.224 18.7638 163.875 14.4385 157.285ZM40.8106 162.496C42.3436 161.985 43.8767 159.358 44.8735 156.761C45.0002 156.431 45.1183 156.101 45.2266 155.776C45.5052 155.987 45.7873 156.192 46.0729 156.393C53.0673 161.3 62.0774 163.072 70.3786 163.072C89.9626 163.072 103.979 150.208 114.155 134.464C123.371 119.872 129.707 101.44 129.515 80.896C128.939 48.256 102.443 14.848 68.0746 15.424C60.2026 15.616 52.7146 17.344 45.4186 20.992C41.0026 15.424 36.0106 14.848 29.2906 14.848C19.3066 14.848 9.89855 18.496 5.48256 28.288C2.41056 34.816 1.45056 52.288 2.02656 71.296C2.41056 89.728 5.09856 140.992 15.2746 156.736C19.3066 162.88 26.2186 164.224 33.1306 164.224C35.4346 164.224 38.6986 163.84 40.8106 162.496ZM75.7944 156.899L75.8391 156.894C82.6781 156.154 89.2175 152.631 94.9851 147.809C100.746 142.993 105.672 136.934 109.276 131.244C117.824 117.566 123.712 100.09 123.523 80.9104C122.952 51.3576 99.456 21.416 68.6506 21.416C60.948 21.416 53.4348 23.2929 46.2872 27.2427C46.2869 27.2428 46.2866 27.243 46.2862 27.2432L44.5914 28.1848C40.3238 30.9742 36.4057 34.8865 32.8384 40.8945L31.0011 40.1726C32.4926 33.2748 34.9025 28.2182 40.1023 23.7907C38.6529 22.4226 37.185 21.7044 35.624 21.3141C33.7496 20.8455 31.7188 20.84 29.2906 20.84C25.2437 20.84 21.5237 21.4066 18.3993 22.9235C15.3051 24.4258 12.7402 26.8856 11.0114 30.7902C9.83087 33.7063 8.92679 39.1278 8.39982 46.2418C7.87508 53.3258 7.73097 61.9755 8.01787 71.2583C8.02847 71.4969 8.03933 71.7417 8.05046 71.9927C8.44262 80.8367 9.17133 97.2707 10.9406 113.427C11.8507 121.737 13.034 129.954 14.5833 137.016C16.1387 144.105 18.0408 149.919 20.3386 153.505C21.6153 155.461 23.5464 156.644 25.7947 157.341C28.0551 158.042 30.5798 158.232 32.9386 158.232C35.5928 158.232 36.8118 157.897 37.975 157.411C38.1244 157.297 38.2594 157.229 38.3339 157.192L38.3473 157.186C38.3705 157.174 38.3859 157.166 38.3955 157.161L38.4876 157.069C38.5444 156.967 38.6197 156.809 38.7113 156.589C38.9116 156.108 39.1416 155.448 39.3803 154.72C39.5597 154.173 39.7462 153.579 39.9245 153.011C40.1254 152.37 40.3159 151.763 40.4742 151.294C36.7146 145.258 35.9719 139.397 36.163 133.09L38.0893 132.744C38.388 133.481 38.6716 134.185 38.9431 134.859C41.3126 140.739 42.7561 144.322 45.2353 147.466L46.1584 148.574C46.4075 148.825 46.6296 149.072 46.833 149.302C46.8689 149.342 46.904 149.382 46.9385 149.421C47.1132 149.619 47.2725 149.799 47.4405 149.976C47.8296 150.387 48.2339 150.747 48.7947 151.068L48.8488 151.099L48.8986 151.136C54.7957 155.559 62.7998 157.08 70.3786 157.08H73.0666C74.042 157.08 74.9033 157.077 75.7504 156.907L75.7944 156.899ZM45.4186 149.248L44.4586 148.096C41.9222 144.883 40.4283 141.224 38.1408 135.544C38.1027 135.45 38.0644 135.354 38.0259 135.259C37.7508 134.576 37.464 133.864 37.1626 133.12C37.1357 134.006 37.1276 134.881 37.1441 135.747C37.2455 141.071 38.2757 146.049 41.5786 151.168C41.4059 151.628 41.1642 152.399 40.8949 153.258C40.2658 155.265 39.4859 157.754 39.0826 157.888C38.9866 157.984 38.8906 158.032 38.7946 158.08C38.6986 158.128 38.6026 158.176 38.5066 158.272C37.1626 158.848 35.8186 159.232 32.9386 159.232C28.1386 159.232 22.3786 158.464 19.4986 154.048C10.0331 139.282 7.84721 89.9841 7.05165 72.0417C7.04034 71.7868 7.02932 71.5381 7.01856 71.296C6.44256 52.672 7.59456 36.544 10.0906 30.4C13.7386 22.144 21.0346 19.84 29.2906 19.84C33.7851 19.84 37.4379 19.84 40.8796 23.1502C41.1135 23.3751 41.3464 23.6154 41.5786 23.872C41.3135 24.0822 41.0555 24.2937 40.8041 24.5066C36.5738 28.0912 34.2507 32.0924 32.7488 37.2999C32.4652 38.2832 32.2109 39.3094 31.9786 40.384C32.5321 39.4516 33.0946 38.5679 33.6658 37.7295C36.8591 33.0428 40.3287 29.7709 44.0746 27.328L45.8026 26.368C53.0986 22.336 60.7785 20.416 68.6506 20.416C100.139 20.416 123.947 50.944 124.523 80.896C124.715 100.288 118.763 117.952 110.123 131.776C102.827 143.296 90.1546 156.352 75.9466 157.888C74.9866 158.08 74.0266 158.08 73.0666 158.08H70.3786C62.6986 158.08 54.4426 156.544 48.2986 151.936C47.345 151.391 46.7781 150.75 46.1863 150.08C45.944 149.806 45.6975 149.527 45.4186 149.248ZM60.045 99.944H59.8186C56.7289 99.944 53.1358 99.3003 50.277 97.6777C47.393 96.0408 45.2091 93.3652 45.1867 89.4053C44.9826 87.644 45.4342 85.7507 46.2068 83.6262L46.2122 83.6113L46.2181 83.5966C49.3916 75.6628 55.4492 69.912 64.4266 69.912H64.4888L64.5506 69.9197C67.0021 70.2261 68.9133 71.0032 70.4033 72.1951C71.8864 73.3816 72.8851 74.9257 73.602 76.6625C74.4587 78.5974 74.6458 80.6999 74.4476 83.2767L74.4463 83.2936L74.4444 83.3104C74.2442 85.1128 73.8401 86.9458 73.0204 88.7901C70.6727 94.0724 66.2206 99.5181 60.0794 99.9416L60.045 99.944ZM72.6826 77.056C71.3386 73.792 69.0346 71.488 64.4266 70.912C55.9786 70.912 50.2186 76.288 47.1466 83.968C46.3786 86.08 45.9946 87.808 46.1866 89.344C46.1866 96.448 53.8666 98.944 59.8186 98.944H60.0106C65.5786 98.56 69.8026 93.568 72.1066 88.384C72.8746 86.656 73.2586 84.928 73.4506 83.2C73.6425 80.704 73.4506 78.784 72.6826 77.056ZM67.7 22.872L67.7094 22.8721C78.0636 23.0675 88.0712 26.0005 96.5223 32.4858C103.106 37.4977 107.415 43.8228 110.076 48.9987C111.408 51.5896 112.332 53.9026 112.926 55.6362C113.222 56.5028 113.437 57.2289 113.58 57.7768C113.651 58.0501 113.706 58.2848 113.743 58.4739C113.77 58.611 113.8 58.7785 113.808 58.9301C113.927 59.9893 113.567 60.8947 112.939 61.545C112.321 62.1835 111.478 62.5471 110.643 62.6416C109.808 62.7362 108.893 62.5704 108.148 62.0328C107.376 61.4755 106.883 60.5867 106.82 59.4474L106.819 59.4208C106.817 59.413 106.813 59.3748 106.798 59.2945C106.777 59.1807 106.742 59.0201 106.692 58.8149C106.592 58.4056 106.433 57.8384 106.203 57.1438C105.744 55.755 105.008 53.872 103.906 51.7389C101.702 47.4706 98.0475 42.2269 92.2467 37.9231L92.2347 37.9141L92.2229 37.9048C88.6909 35.1164 84.7752 33.2467 80.6413 31.9308C76.3366 30.6214 72.0173 30.0542 67.6679 29.8639C66.6876 29.8606 65.7581 29.6417 65.0874 28.9711C64.7795 28.6632 64.5669 28.3007 64.4266 27.9038C64.2862 28.3007 64.0736 28.6632 63.7657 28.9711C63.0898 29.6469 62.1511 29.864 61.1626 29.864C60.1716 29.864 59.2158 29.6463 58.5038 29.0092C57.7704 28.353 57.4746 27.415 57.4746 26.368C57.4746 25.3231 57.7677 24.3646 58.4634 23.6689C59.1592 22.9731 60.1176 22.68 61.1626 22.68C62.2096 22.68 63.1476 22.9758 63.8038 23.7092C64.0942 24.0337 64.2974 24.4089 64.4327 24.815C64.573 24.4248 64.784 24.0683 65.0874 23.7649C65.7633 23.089 66.702 22.872 67.6906 22.872H67.7ZM67.6906 28.864C72.1066 29.056 76.5226 29.632 80.9386 30.976C85.1626 32.32 89.1946 34.24 92.8426 37.12C104.747 45.952 107.819 58.624 107.819 59.392C108.011 62.848 113.195 62.08 112.811 59.008C112.811 58.048 108.779 43.072 95.9146 33.28C87.6586 26.944 77.8666 24.064 67.6906 23.872C65.9626 23.872 65.1946 24.64 65.1946 26.368C65.1946 28.096 65.9626 28.864 67.6906 28.864ZM67.4674 82.4912L67.4686 82.4825C67.6514 81.2031 67.6185 80.1079 67.1801 79.2312L67.1483 79.1676L67.1259 79.1002C66.8984 78.4178 66.5345 77.9189 66.0346 77.544C65.5382 77.1717 64.8613 76.8876 63.9528 76.7125C61.176 76.7469 58.1953 78.3718 55.8622 80.8181C53.5119 83.2825 51.9961 86.3961 51.9866 89.1261C52.0654 90.504 52.9719 91.4407 54.4142 92.077C55.8758 92.7219 57.6929 92.952 59.0506 92.952C61.2839 92.952 63.2278 91.5574 64.7402 89.4355C66.247 87.3216 67.1977 84.6482 67.4663 82.4999L67.4674 82.4912ZM50.9866 89.152C50.9866 83.008 57.7066 75.712 64.0426 75.712C66.1546 76.096 67.4986 77.056 68.0746 78.784C68.6506 79.936 68.6506 81.28 68.4586 82.624C67.8826 87.232 64.4266 93.952 59.0506 93.952C56.1706 93.952 51.1786 92.992 50.9866 89.152ZM61.1626 23.68C59.4346 23.68 58.4746 24.64 58.4746 26.368C58.4746 28.096 59.4346 28.864 61.1626 28.864C62.8906 28.864 63.6586 28.096 63.6586 26.368C63.6586 24.64 62.8906 23.68 61.1626 23.68Z" fill="#62A0E7"/>
</svg>
